<svg width="103" height="32" viewBox="0 0 103 32" fill="none" xmlns="http://www.w3.org/2000/svg">
<path d="M15.75 9.03516C15.737 9.21094 15.7142 9.47135 15.6816 9.81641C15.6491 10.1549 15.61 10.5423 15.5645 10.9785C15.5254 11.4082 15.4831 11.8607 15.4375 12.3359C15.3919 12.8112 15.3464 13.2669 15.3008 13.7031C15.2617 14.1328 15.2259 14.5234 15.1934 14.875C15.1608 15.2266 15.138 15.4902 15.125 15.666C14.9883 17.0527 14.7539 18.2441 14.4219 19.2402C14.0964 20.2298 13.6667 21.0404 13.1328 21.6719C12.599 22.3034 11.9577 22.7656 11.209 23.0586C10.4668 23.3581 9.60742 23.5078 8.63086 23.5078C7.96029 23.5078 7.32878 23.3841 6.73633 23.1367C6.14388 22.8958 5.6263 22.554 5.18359 22.1113C4.74089 21.6686 4.38932 21.138 4.12891 20.5195C3.875 19.8945 3.74805 19.2012 3.74805 18.4395C3.74805 18.3418 3.75456 18.166 3.76758 17.9121C3.78711 17.6517 3.8099 17.3359 3.83594 16.9648C3.86849 16.5938 3.90104 16.1738 3.93359 15.7051C3.97266 15.2298 4.01172 14.7253 4.05078 14.1914L4.16797 12.5703C4.20703 11.9779 4.23633 11.4863 4.25586 11.0957C4.27539 10.6986 4.29492 10.3796 4.31445 10.1387C4.34049 9.89779 4.3763 9.72201 4.42188 9.61133C4.46745 9.50065 4.53906 9.42904 4.63672 9.39648L7.9668 8.6543C8.05143 8.62826 8.13932 8.61523 8.23047 8.61523C8.33464 8.61523 8.40299 8.64453 8.43555 8.70312C8.47461 8.76172 8.49414 8.8724 8.49414 9.03516L7.75195 16.7305C7.73893 16.9583 7.71615 17.2057 7.68359 17.4727C7.65104 17.7396 7.63477 18.013 7.63477 18.293C7.63477 18.4622 7.6543 18.6478 7.69336 18.8496C7.73893 19.0514 7.81706 19.2435 7.92773 19.4258C8.03841 19.6016 8.18815 19.7513 8.37695 19.875C8.57227 19.9922 8.82292 20.0508 9.12891 20.0508C9.5 20.0508 9.79948 19.9727 10.0273 19.8164C10.2552 19.6536 10.4375 19.4421 10.5742 19.1816C10.7109 18.9147 10.8086 18.6152 10.8672 18.2832C10.9323 17.9447 10.9844 17.5996 11.0234 17.248C11.056 16.8379 11.0951 16.3561 11.1406 15.8027C11.1862 15.2493 11.2318 14.6569 11.2773 14.0254L11.5605 10.1289C11.5736 10.0117 11.5801 9.91406 11.5801 9.83594C11.5866 9.75781 11.5964 9.69271 11.6094 9.64062C11.6224 9.58854 11.6484 9.54948 11.6875 9.52344C11.7331 9.4974 11.8014 9.47786 11.8926 9.46484L15.2227 8.6543C15.3073 8.62826 15.3952 8.61523 15.4863 8.61523C15.5775 8.61523 15.6426 8.64453 15.6816 8.70312C15.7272 8.75521 15.75 8.86589 15.75 9.03516ZM25.3984 9.91406C25.4505 9.69922 25.4961 9.54297 25.5352 9.44531C25.5742 9.34766 25.6589 9.28255 25.7891 9.25L28.3184 8.6543C28.3965 8.62826 28.4811 8.61523 28.5723 8.61523C28.6569 8.61523 28.7188 8.64453 28.7578 8.70312C28.7969 8.76172 28.8164 8.8724 28.8164 9.03516C28.7773 9.19141 28.7448 9.43229 28.7188 9.75781C28.6927 10.0768 28.6732 10.4284 28.6602 10.8125C28.6471 11.1966 28.6374 11.584 28.6309 11.9746C28.6243 12.3587 28.6211 12.694 28.6211 12.9805V13.5176C28.6211 13.9212 28.6178 14.3607 28.6113 14.8359C28.6048 15.3112 28.5951 15.793 28.582 16.2812C28.5755 16.7695 28.5658 17.2513 28.5527 17.7266C28.5397 18.2018 28.5267 18.6478 28.5137 19.0645L28.4551 20.7344C28.4486 20.7669 28.4453 20.7962 28.4453 20.8223C28.4453 20.8483 28.4453 20.8743 28.4453 20.9004V21.0469C28.4453 21.1576 28.4453 21.252 28.4453 21.3301C28.4518 21.4017 28.4551 21.4668 28.4551 21.5254C28.4551 21.5905 28.4486 21.6491 28.4355 21.7012C28.429 21.7533 28.4062 21.8053 28.3672 21.8574C28.3281 21.903 28.2728 21.9518 28.2012 22.0039C28.1361 22.056 28.0449 22.1211 27.9277 22.1992C27.8626 22.2448 27.7552 22.3132 27.6055 22.4043C27.4557 22.4889 27.2897 22.5866 27.1074 22.6973C26.9251 22.8079 26.7363 22.9219 26.541 23.0391C26.3457 23.1562 26.1667 23.2604 26.0039 23.3516C25.8411 23.4492 25.7077 23.5273 25.6035 23.5859C25.5059 23.6445 25.457 23.6738 25.457 23.6738L20.9258 16.7012L20.5156 22.4141C20.5091 22.4661 20.4961 22.5215 20.4766 22.5801C20.4635 22.6387 20.4212 22.6842 20.3496 22.7168C20.291 22.7428 20.1901 22.7852 20.0469 22.8438C19.9036 22.8958 19.7344 22.9577 19.5391 23.0293C19.3503 23.1009 19.1484 23.1725 18.9336 23.2441C18.7253 23.3223 18.5267 23.3906 18.3379 23.4492C18.1491 23.5143 17.9798 23.5664 17.8301 23.6055C17.6868 23.6445 17.5892 23.6641 17.5371 23.6641C17.4395 23.6641 17.3581 23.638 17.293 23.5859C17.2279 23.5339 17.1953 23.4395 17.1953 23.3027C17.2604 22.4889 17.3353 21.6035 17.4199 20.6465C17.5046 19.6829 17.5859 18.6966 17.6641 17.6875C17.7422 16.6784 17.8138 15.6725 17.8789 14.6699C17.9505 13.6608 18.0091 12.7038 18.0547 11.7988C18.0547 11.7728 18.0124 11.6882 17.9277 11.5449C17.8496 11.3952 17.7585 11.2357 17.6543 11.0664C17.5566 10.8906 17.4655 10.7279 17.3809 10.5781C17.3027 10.4219 17.2637 10.3242 17.2637 10.2852C17.2637 10.2396 17.2865 10.1973 17.332 10.1582C17.3841 10.1191 17.4655 10.0671 17.5762 10.002L20.1836 8.52734C20.2031 8.52734 20.2292 8.52409 20.2617 8.51758C20.3008 8.51107 20.3333 8.50781 20.3594 8.50781C20.431 8.50781 20.4863 8.51758 20.5254 8.53711C20.571 8.55013 20.6165 8.59896 20.6621 8.68359L25.3984 17.2285V9.91406ZM32.6934 23.3125C32.7259 22.8372 32.7585 22.3783 32.791 21.9355C32.8236 21.4928 32.8529 21.0632 32.8789 20.6465L33.2305 16.0371C33.2695 15.6855 33.3021 15.3665 33.3281 15.0801C33.3542 14.7871 33.3737 14.5039 33.3867 14.2305C33.4062 13.9505 33.4225 13.6706 33.4355 13.3906C33.4551 13.1042 33.4746 12.7884 33.4941 12.4434C33.2793 12.4368 33.0514 12.4336 32.8105 12.4336C32.5762 12.4336 32.3288 12.4336 32.0684 12.4336H30.1836C30.112 12.4336 30.0664 12.4076 30.0469 12.3555C30.0339 12.2969 30.0273 12.2448 30.0273 12.1992V12.1309L31.1016 9.30859L31.0918 9.26953C31.0918 9.23698 31.1113 9.21094 31.1504 9.19141C31.196 9.16536 31.2936 9.14583 31.4434 9.13281C32.3418 9.08073 33.2109 9.0319 34.0508 8.98633C34.8971 8.93424 35.7305 8.88867 36.5508 8.84961C37.3776 8.81055 38.2012 8.77148 39.0215 8.73242C39.8483 8.69336 40.6979 8.65755 41.5703 8.625C41.6484 8.625 41.7298 8.63477 41.8145 8.6543C41.9056 8.67383 41.9512 8.74544 41.9512 8.86914C41.9512 8.88216 41.9479 8.89518 41.9414 8.9082C41.9349 8.92122 41.9316 8.93424 41.9316 8.94727C41.8275 9.21419 41.7298 9.4681 41.6387 9.70898C41.554 9.94987 41.4694 10.1875 41.3848 10.4219C41.3001 10.6562 41.2122 10.8939 41.1211 11.1348C41.0365 11.3757 40.9421 11.6296 40.8379 11.8965C40.8314 11.903 40.8184 11.9355 40.7988 11.9941C40.7793 12.0462 40.75 12.1081 40.7109 12.1797C40.6719 12.2448 40.6198 12.3066 40.5547 12.3652C40.4896 12.4238 40.4082 12.4564 40.3105 12.4629C40.278 12.4564 40.2454 12.4531 40.2129 12.4531C40.1803 12.4531 40.1445 12.4531 40.1055 12.4531H37.498C37.4655 12.7852 37.4329 13.1367 37.4004 13.5078C37.3743 13.8789 37.3418 14.2402 37.3027 14.5918L36.5898 22.2188C36.5833 22.2773 36.5703 22.3359 36.5508 22.3945C36.5378 22.4531 36.4954 22.4954 36.4238 22.5215L33.6602 23.5176C33.5885 23.5436 33.4941 23.5762 33.377 23.6152C33.2598 23.6543 33.1458 23.6738 33.0352 23.6738C32.944 23.6738 32.8626 23.651 32.791 23.6055C32.7259 23.5599 32.6934 23.4753 32.6934 23.3516V23.3125ZM39.9492 22.2871C40.0339 22.1178 40.1217 21.929 40.2129 21.7207C40.304 21.5059 40.3887 21.2747 40.4668 21.0273L40.7305 20.3828C40.6133 20.207 40.4928 20.0182 40.3691 19.8164C40.252 19.6081 40.1445 19.3965 40.0469 19.1816C39.9492 18.9668 39.8678 18.752 39.8027 18.5371C39.7441 18.3223 39.7148 18.1139 39.7148 17.9121C39.7148 17.8991 39.7637 17.8893 39.8613 17.8828C39.9655 17.8698 40.0924 17.86 40.2422 17.8535C40.3984 17.847 40.5645 17.8438 40.7402 17.8438C40.9225 17.8372 41.0885 17.834 41.2383 17.834C41.3945 17.8275 41.5215 17.8242 41.6191 17.8242C41.7233 17.8177 41.7754 17.8145 41.7754 17.8145C41.9251 17.4238 42.0716 17.0527 42.2148 16.7012C42.3581 16.3496 42.5013 15.9948 42.6445 15.6367C42.7878 15.2786 42.931 14.9141 43.0742 14.543C43.2174 14.1654 43.3607 13.7617 43.5039 13.332C43.7773 12.5247 44.0443 11.8151 44.3047 11.2031C44.5651 10.5911 44.8092 10.0215 45.0371 9.49414C45.0632 9.42904 45.1055 9.37044 45.1641 9.31836C45.2292 9.25977 45.2975 9.21094 45.3691 9.17188C45.4408 9.13281 45.5091 9.10026 45.5742 9.07422C45.6458 9.04818 45.7012 9.02865 45.7402 9.01562C45.7663 9.00911 45.8639 8.97982 46.0332 8.92773C46.209 8.87565 46.4076 8.82031 46.6289 8.76172C46.8503 8.70312 47.0684 8.65104 47.2832 8.60547C47.5046 8.5599 47.6803 8.53711 47.8105 8.53711H47.9863C48.0905 8.53711 48.1882 8.56315 48.2793 8.61523C48.377 8.66081 48.4421 8.75521 48.4746 8.89844C48.7871 9.69922 49.1191 10.5749 49.4707 11.5254C49.8288 12.4694 50.1771 13.5111 50.5156 14.6504C50.6979 15.2624 50.877 15.8418 51.0527 16.3887C51.2285 16.9355 51.4043 17.4694 51.5801 17.9902C51.7559 18.5111 51.9316 19.0319 52.1074 19.5527C52.2897 20.0736 52.4753 20.6107 52.6641 21.1641C52.7227 21.3984 52.7812 21.584 52.8398 21.7207C52.9049 21.8574 52.9635 21.9648 53.0156 22.043C53.0677 22.1211 53.11 22.1797 53.1426 22.2188C53.1751 22.2513 53.1914 22.2871 53.1914 22.3262C53.1914 22.3652 53.1296 22.4043 53.0059 22.4434L50.9062 23.127C50.75 23.1855 50.5905 23.2441 50.4277 23.3027C50.265 23.3613 50.112 23.4134 49.9688 23.459C49.8255 23.5046 49.6986 23.5404 49.5879 23.5664C49.4837 23.599 49.4089 23.6152 49.3633 23.6152H49.3047C49.2135 23.6152 49.1484 23.5859 49.1094 23.5273C49.0703 23.4753 49.0443 23.4232 49.0312 23.3711C48.9661 23.1562 48.901 22.9642 48.8359 22.7949C48.7708 22.6191 48.7057 22.4466 48.6406 22.2773C48.582 22.1016 48.5202 21.916 48.4551 21.7207C48.3965 21.5254 48.3379 21.2943 48.2793 21.0273C48.2663 20.9948 48.2305 20.9688 48.1719 20.9492C48.1133 20.9232 48.0417 20.9036 47.957 20.8906C47.8789 20.8776 47.7943 20.8711 47.7031 20.8711C47.612 20.8646 47.5273 20.8613 47.4492 20.8613C47.2018 20.8613 47 20.8646 46.8438 20.8711C46.694 20.8711 46.5605 20.8743 46.4434 20.8809C46.3262 20.8809 46.2122 20.8841 46.1016 20.8906C45.9974 20.8906 45.8672 20.8906 45.7109 20.8906C45.5221 20.8906 45.3268 20.8906 45.125 20.8906C44.9297 20.8841 44.7507 20.8776 44.5879 20.8711L44.0312 20.8516C43.862 21.3203 43.6927 21.7598 43.5234 22.1699C43.3542 22.5801 43.1719 23.0033 42.9766 23.4395C42.9635 23.4915 42.931 23.5339 42.8789 23.5664C42.8333 23.599 42.7845 23.6152 42.7324 23.6152C42.6934 23.6152 42.6706 23.612 42.6641 23.6055C42.0326 23.3776 41.502 23.153 41.0723 22.9316C40.6426 22.7103 40.2682 22.4954 39.9492 22.2871ZM46.5312 13.5078C46.375 14.0872 46.2188 14.6146 46.0625 15.0898C45.9128 15.5586 45.7728 15.9753 45.6426 16.3398C45.5189 16.7044 45.4115 17.0137 45.3203 17.2676C45.2292 17.515 45.1641 17.707 45.125 17.8438V17.9316C45.125 17.9707 45.1217 17.9967 45.1152 18.0098H47.459C47.3874 17.6908 47.3092 17.3685 47.2246 17.043C47.1465 16.7174 47.0684 16.3757 46.9902 16.0176C46.9121 15.6595 46.834 15.2754 46.7559 14.8652C46.6777 14.4551 46.6029 14.0026 46.5312 13.5078ZM53.6602 16.6914C53.6602 15.9427 53.7448 15.2266 53.9141 14.543C54.0898 13.8529 54.3372 13.2116 54.6562 12.6191C54.9753 12.0202 55.3594 11.4798 55.8086 10.998C56.2643 10.5098 56.7721 10.0931 57.332 9.74805C57.8919 9.39648 58.4974 9.1263 59.1484 8.9375C59.806 8.7487 60.4961 8.6543 61.2188 8.6543C61.7917 8.6543 62.293 8.69336 62.7227 8.77148C63.1589 8.8431 63.5365 8.9375 63.8555 9.05469C64.181 9.16536 64.4512 9.28906 64.666 9.42578C64.8874 9.5625 65.0697 9.69271 65.2129 9.81641C65.2064 9.81641 65.2031 9.83919 65.2031 9.88477C65.2031 9.98242 65.2096 10.1615 65.2227 10.4219C65.2422 10.6823 65.2617 10.972 65.2812 11.291C65.3073 11.61 65.3268 11.9355 65.3398 12.2676C65.3594 12.5931 65.3691 12.8763 65.3691 13.1172C65.3691 13.1562 65.3561 13.2018 65.3301 13.2539C65.304 13.2995 65.2389 13.3223 65.1348 13.3223C65.0762 13.3223 65.0046 13.3125 64.9199 13.293C64.7832 13.2539 64.6107 13.166 64.4023 13.0293C64.194 12.8861 63.9499 12.7396 63.6699 12.5898C63.3965 12.4336 63.0872 12.2969 62.7422 12.1797C62.4036 12.056 62.0326 11.9941 61.6289 11.9941C61.0951 11.9941 60.61 12.1081 60.1738 12.3359C59.7376 12.5573 59.3665 12.8698 59.0605 13.2734C58.7546 13.6706 58.5169 14.1458 58.3477 14.6992C58.1784 15.2461 58.0938 15.8418 58.0938 16.4863C58.0938 17.0527 58.1458 17.5833 58.25 18.0781C58.3542 18.5729 58.5104 19.0026 58.7188 19.3672C58.9336 19.7253 59.1973 20.0085 59.5098 20.2168C59.8223 20.4251 60.1901 20.5293 60.6133 20.5293C61.0234 20.5293 61.4889 20.4414 62.0098 20.2656L62.2344 18.8887H60.3691C60.5124 18.1009 60.6361 17.4824 60.7402 17.0332C60.8444 16.584 60.9421 16.2454 61.0332 16.0176C61.1243 15.7897 61.2188 15.6465 61.3164 15.5879C61.4141 15.5293 61.528 15.5 61.6582 15.5H66.7949C66.9447 15.5 67.0521 15.5098 67.1172 15.5293C67.1888 15.5488 67.2246 15.6172 67.2246 15.7344C67.2246 15.793 67.2181 15.8646 67.2051 15.9492C67.1921 16.0273 67.1758 16.125 67.1562 16.2422L66.668 17.8828C66.6094 18.0911 66.5605 18.2539 66.5215 18.3711C66.4824 18.4818 66.4336 18.5664 66.375 18.625C66.3164 18.6771 66.235 18.7096 66.1309 18.7227C66.0332 18.7292 65.89 18.7324 65.7012 18.7324C65.597 18.7324 65.5352 18.7747 65.5156 18.8594C65.4961 18.944 65.4798 19.0319 65.4668 19.123C65.4277 19.4095 65.3887 19.696 65.3496 19.9824C65.3105 20.2624 65.2715 20.526 65.2324 20.7734C65.1999 21.0143 65.1641 21.2292 65.125 21.418C65.0859 21.6003 65.0469 21.7337 65.0078 21.8184C64.5651 22.0983 64.1615 22.3457 63.7969 22.5605C63.4388 22.7689 63.0807 22.9414 62.7227 23.0781C62.3646 23.2214 61.987 23.3288 61.5898 23.4004C61.1927 23.472 60.737 23.5078 60.2227 23.5078C59.3047 23.5078 58.4453 23.3418 57.6445 23.0098C56.8438 22.6777 56.1471 22.2122 55.5547 21.6133C54.9688 21.0078 54.5065 20.2884 54.168 19.4551C53.8294 18.6217 53.6602 17.7005 53.6602 16.6914Z" fill="white"/>
<rect x="71" width="32" height="32" rx="16" fill="white"/>
<path d="M83.9453 13.9121C83.9414 14.248 83.9082 14.5488 83.8457 14.8145C83.7871 15.0801 83.7012 15.3203 83.5879 15.5352C83.4785 15.7461 83.3438 15.9375 83.1836 16.1094C83.0273 16.2773 82.8477 16.4355 82.6445 16.584C82.2539 16.8652 81.8262 17.0781 81.3613 17.2227C80.8965 17.3633 80.4297 17.4336 79.9609 17.4336C79.8828 17.4336 79.8047 17.4316 79.7266 17.4277C79.6523 17.4238 79.5762 17.418 79.498 17.4102L79.3047 19.5488L79.2051 19.7305C79.1973 19.7461 79.1309 19.7773 79.0059 19.8242C78.8809 19.8711 78.7246 19.9258 78.5371 19.9883L78.168 20.1113C78.0508 20.1543 77.9473 20.1934 77.8574 20.2285C77.7676 20.2637 77.6836 20.2949 77.6055 20.3223C77.5273 20.3496 77.4512 20.3691 77.377 20.3809C77.3027 20.3965 77.2246 20.4043 77.1426 20.4043C77.0879 20.4043 77.0449 20.3906 77.0137 20.3633C76.9824 20.3359 76.9668 20.2832 76.9668 20.2051L77.0312 19.2031C77.043 19.0039 77.0566 18.8047 77.0723 18.6055C77.0918 18.4023 77.1094 18.1719 77.125 17.9141L77.2363 16.5137C77.2598 16.2285 77.2812 15.9434 77.3008 15.6582C77.3203 15.373 77.3398 15.1016 77.3594 14.8438C77.3789 14.5859 77.3965 14.3457 77.4121 14.123C77.4277 13.8965 77.4414 13.6992 77.4531 13.5312C77.2422 13.5781 77.0723 13.6133 76.9434 13.6367C76.8184 13.6562 76.7227 13.666 76.6562 13.666C76.5742 13.666 76.5332 13.6309 76.5332 13.5605C76.5879 13.3691 76.6387 13.1816 76.6855 12.998C76.7285 12.8418 76.7715 12.6816 76.8145 12.5176C76.8613 12.3496 76.9004 12.209 76.9316 12.0957C76.9512 12.0254 76.9727 11.9727 76.9961 11.9375C77.0234 11.8984 77.0566 11.8691 77.0957 11.8496C77.1387 11.8262 77.1914 11.8066 77.2539 11.791C77.3203 11.7715 77.4004 11.7461 77.4941 11.7148C77.5684 11.6914 77.6719 11.666 77.8047 11.6387C77.9414 11.6074 78.0957 11.5781 78.2676 11.5508C78.4434 11.5195 78.6328 11.4902 78.8359 11.4629C79.0391 11.4355 79.2441 11.4121 79.4512 11.3926C79.6621 11.3691 79.8691 11.3516 80.0723 11.3398C80.2754 11.3242 80.4668 11.3164 80.6465 11.3164C81.0918 11.3164 81.5137 11.3574 81.9121 11.4395C82.3105 11.5215 82.6602 11.6621 82.9609 11.8613C83.2617 12.0566 83.5 12.3223 83.6758 12.6582C83.8555 12.9902 83.9453 13.4082 83.9453 13.9121ZM79.6621 15.6699C79.6621 15.7129 79.6699 15.752 79.6855 15.7871C79.7012 15.8184 79.7441 15.834 79.8145 15.834C79.9238 15.834 80.0527 15.8105 80.2012 15.7637C80.3535 15.7129 80.5039 15.6387 80.6523 15.541C80.8047 15.4434 80.9453 15.3223 81.0742 15.1777C81.2031 15.0332 81.3008 14.8633 81.3672 14.668C81.3945 14.5898 81.416 14.4902 81.4316 14.3691C81.4512 14.248 81.4609 14.1055 81.4609 13.9414C81.4609 13.668 81.3652 13.4668 81.1738 13.3379C80.9863 13.209 80.7402 13.1445 80.4355 13.1445C80.3848 13.1445 80.3262 13.1484 80.2598 13.1562C80.1973 13.1602 80.1367 13.1699 80.0781 13.1855C80.0234 13.2012 79.9766 13.2207 79.9375 13.2441C79.8984 13.2637 79.877 13.291 79.873 13.3262L79.8613 13.4551C79.8574 13.5059 79.8496 13.5898 79.8379 13.707C79.8262 13.8203 79.8125 13.9512 79.7969 14.0996C79.7852 14.248 79.7715 14.4043 79.7559 14.5684C79.7441 14.7324 79.7305 14.8887 79.7148 15.0371C79.7031 15.1855 79.6914 15.3164 79.6797 15.4297C79.6719 15.543 79.666 15.623 79.6621 15.6699ZM83.5586 19.5723C83.6094 19.4707 83.6621 19.3574 83.7168 19.2324C83.7715 19.1035 83.8223 18.9648 83.8691 18.8164L84.0273 18.4297C83.957 18.3242 83.8848 18.2109 83.8105 18.0898C83.7402 17.9648 83.6758 17.8379 83.6172 17.709C83.5586 17.5801 83.5098 17.4512 83.4707 17.3223C83.4355 17.1934 83.418 17.0684 83.418 16.9473C83.418 16.9395 83.4473 16.9336 83.5059 16.9297C83.5684 16.9219 83.6445 16.916 83.7344 16.9121C83.8281 16.9082 83.9277 16.9062 84.0332 16.9062C84.1426 16.9023 84.2422 16.9004 84.332 16.9004C84.4258 16.8965 84.502 16.8945 84.5605 16.8945C84.623 16.8906 84.6543 16.8887 84.6543 16.8887C84.7441 16.6543 84.832 16.4316 84.918 16.2207C85.0039 16.0098 85.0898 15.7969 85.1758 15.582C85.2617 15.3672 85.3477 15.1484 85.4336 14.9258C85.5195 14.6992 85.6055 14.457 85.6914 14.1992C85.8555 13.7148 86.0156 13.2891 86.1719 12.9219C86.3281 12.5547 86.4746 12.2129 86.6113 11.8965C86.627 11.8574 86.6523 11.8223 86.6875 11.791C86.7266 11.7559 86.7676 11.7266 86.8105 11.7031C86.8535 11.6797 86.8945 11.6602 86.9336 11.6445C86.9766 11.6289 87.0098 11.6172 87.0332 11.6094C87.0488 11.6055 87.1074 11.5879 87.209 11.5566C87.3145 11.5254 87.4336 11.4922 87.5664 11.457C87.6992 11.4219 87.8301 11.3906 87.959 11.3633C88.0918 11.3359 88.1973 11.3223 88.2754 11.3223H88.3809C88.4434 11.3223 88.502 11.3379 88.5566 11.3691C88.6152 11.3965 88.6543 11.4531 88.6738 11.5391C88.8613 12.0195 89.0605 12.5449 89.2715 13.1152C89.4863 13.6816 89.6953 14.3066 89.8984 14.9902C90.0078 15.3574 90.1152 15.7051 90.2207 16.0332C90.3262 16.3613 90.4316 16.6816 90.5371 16.9941C90.6426 17.3066 90.748 17.6191 90.8535 17.9316C90.9629 18.2441 91.0742 18.5664 91.1875 18.8984C91.2227 19.0391 91.2578 19.1504 91.293 19.2324C91.332 19.3145 91.3672 19.3789 91.3984 19.4258C91.4297 19.4727 91.4551 19.5078 91.4746 19.5312C91.4941 19.5508 91.5039 19.5723 91.5039 19.5957C91.5039 19.6191 91.4668 19.6426 91.3926 19.666L90.1328 20.0762C90.0391 20.1113 89.9434 20.1465 89.8457 20.1816C89.748 20.2168 89.6562 20.248 89.5703 20.2754C89.4844 20.3027 89.4082 20.3242 89.3418 20.3398C89.2793 20.3594 89.2344 20.3691 89.207 20.3691H89.1719C89.1172 20.3691 89.0781 20.3516 89.0547 20.3164C89.0312 20.2852 89.0156 20.2539 89.0078 20.2227C88.9688 20.0938 88.9297 19.9785 88.8906 19.877C88.8516 19.7715 88.8125 19.668 88.7734 19.5664C88.7383 19.4609 88.7012 19.3496 88.6621 19.2324C88.627 19.1152 88.5918 18.9766 88.5566 18.8164C88.5488 18.7969 88.5273 18.7812 88.4922 18.7695C88.457 18.7539 88.4141 18.7422 88.3633 18.7344C88.3164 18.7266 88.2656 18.7227 88.2109 18.7227C88.1562 18.7188 88.1055 18.7168 88.0586 18.7168C87.9102 18.7168 87.7891 18.7188 87.6953 18.7227C87.6055 18.7227 87.5254 18.7246 87.4551 18.7285C87.3848 18.7285 87.3164 18.7305 87.25 18.7344C87.1875 18.7344 87.1094 18.7344 87.0156 18.7344C86.9023 18.7344 86.7852 18.7344 86.6641 18.7344C86.5469 18.7305 86.4395 18.7266 86.3418 18.7227L86.0078 18.7109C85.9062 18.9922 85.8047 19.2559 85.7031 19.502C85.6016 19.748 85.4922 20.002 85.375 20.2637C85.3672 20.2949 85.3477 20.3203 85.3164 20.3398C85.2891 20.3594 85.2598 20.3691 85.2285 20.3691C85.2051 20.3691 85.1914 20.3672 85.1875 20.3633C84.8086 20.2266 84.4902 20.0918 84.2324 19.959C83.9746 19.8262 83.75 19.6973 83.5586 19.5723ZM87.5078 14.3047C87.4141 14.6523 87.3203 14.9688 87.2266 15.2539C87.1367 15.5352 87.0527 15.7852 86.9746 16.0039C86.9004 16.2227 86.8359 16.4082 86.7812 16.5605C86.7266 16.709 86.6875 16.8242 86.6641 16.9062V16.959C86.6641 16.9824 86.6621 16.998 86.6582 17.0059H88.0645C88.0215 16.8145 87.9746 16.6211 87.9238 16.4258C87.877 16.2305 87.8301 16.0254 87.7832 15.8105C87.7363 15.5957 87.6895 15.3652 87.6426 15.1191C87.5957 14.873 87.5508 14.6016 87.5078 14.3047ZM91.4219 12.1953C91.4453 12.1797 91.4844 12.1602 91.5391 12.1367C91.5977 12.1094 91.6641 12.0801 91.7383 12.0488C91.8164 12.0176 91.8984 11.9844 91.9844 11.9492C92.0742 11.9102 92.1641 11.873 92.2539 11.8379L92.9336 11.5684C92.9844 11.5449 93.0312 11.5332 93.0742 11.5332C93.1055 11.5332 93.1387 11.543 93.1738 11.5625C93.2129 11.5781 93.2559 11.6094 93.3027 11.6562L94.6562 14.2812L94.6914 14.1934L95.2715 13.1211C95.3457 12.9883 95.418 12.8574 95.4883 12.7285C95.5625 12.5996 95.627 12.4844 95.6816 12.3828C95.7402 12.2812 95.7891 12.1992 95.8281 12.1367C95.8672 12.0742 95.8906 12.043 95.8984 12.043L97.9082 11.5391C97.9551 11.5273 97.9941 11.5215 98.0254 11.5215C98.1152 11.5215 98.1602 11.5625 98.1602 11.6445C98.1562 11.6641 98.1523 11.6914 98.1484 11.7266C98.1445 11.7578 98.1328 11.793 98.1133 11.832L96.3906 15.0254C96.3047 15.1855 96.2168 15.3457 96.127 15.5059C96.041 15.666 95.957 15.8184 95.875 15.9629C95.793 16.1035 95.7188 16.2324 95.6523 16.3496C95.5898 16.4668 95.5391 16.5625 95.5 16.6367L95.459 16.8301L95.1309 19.0273C95.1191 19.0938 95.1094 19.1484 95.1016 19.1914C95.0938 19.2344 95.082 19.2695 95.0664 19.2969C95.0547 19.3242 95.0371 19.3477 95.0137 19.3672C94.9941 19.3867 94.9648 19.4062 94.9258 19.4258L93.2617 20.2988C93.1992 20.3301 93.1328 20.3555 93.0625 20.375C92.9961 20.3945 92.9316 20.4043 92.8691 20.4043C92.8027 20.4043 92.7461 20.3887 92.6992 20.3574C92.6523 20.3301 92.6289 20.2832 92.6289 20.2168V20.1934C92.6445 19.9707 92.6719 19.7129 92.7109 19.4199C92.7539 19.123 92.7988 18.834 92.8457 18.5527L93.1738 16.3789C93.1113 16.2461 93.0293 16.0703 92.9277 15.8516C92.8262 15.6328 92.7168 15.3965 92.5996 15.1426C92.4824 14.8887 92.3594 14.627 92.2305 14.3574C92.1055 14.0879 91.9863 13.834 91.873 13.5957C91.7637 13.3535 91.6641 13.1406 91.5742 12.957C91.4883 12.7734 91.4238 12.6387 91.3809 12.5527C91.3613 12.4941 91.3516 12.4336 91.3516 12.3711C91.3516 12.3359 91.3555 12.3027 91.3633 12.2715C91.375 12.2363 91.3945 12.2109 91.4219 12.1953Z" fill="#E00120"/>
</svg>
