<svg width="76" height="23" viewBox="0 0 76 23" fill="none" xmlns="http://www.w3.org/2000/svg">
<path d="M10.1147 6.52637C10.105 6.6582 10.0879 6.85352 10.0635 7.1123C10.0391 7.36621 10.0098 7.65674 9.97559 7.98389C9.94629 8.30615 9.91455 8.64551 9.88037 9.00195C9.84619 9.3584 9.81201 9.7002 9.77783 10.0273C9.74854 10.3496 9.72168 10.6426 9.69727 10.9062C9.67285 11.1699 9.65576 11.3677 9.646 11.4995C9.54346 12.5396 9.36768 13.4331 9.11865 14.1802C8.87451 14.9224 8.55225 15.5303 8.15186 16.0039C7.75146 16.4775 7.27051 16.8242 6.70898 17.0439C6.15234 17.2686 5.50781 17.3809 4.77539 17.3809C4.27246 17.3809 3.79883 17.2881 3.35449 17.1025C2.91016 16.9219 2.52197 16.6655 2.18994 16.3335C1.85791 16.0015 1.59424 15.6035 1.39893 15.1396C1.2085 14.6709 1.11328 14.1509 1.11328 13.5796C1.11328 13.5063 1.11816 13.3745 1.12793 13.1841C1.14258 12.9888 1.15967 12.752 1.1792 12.4736C1.20361 12.1953 1.22803 11.8804 1.25244 11.5288C1.28174 11.1724 1.31104 10.7939 1.34033 10.3936L1.42822 9.17773C1.45752 8.7334 1.47949 8.36475 1.49414 8.07178C1.50879 7.77393 1.52344 7.53467 1.53809 7.354C1.55762 7.17334 1.58447 7.0415 1.61865 6.9585C1.65283 6.87549 1.70654 6.82178 1.77979 6.79736L4.27734 6.24072C4.34082 6.22119 4.40674 6.21143 4.4751 6.21143C4.55322 6.21143 4.60449 6.2334 4.62891 6.27734C4.6582 6.32129 4.67285 6.4043 4.67285 6.52637L4.11621 12.2979C4.10645 12.4688 4.08936 12.6543 4.06494 12.8545C4.04053 13.0547 4.02832 13.2598 4.02832 13.4697C4.02832 13.5967 4.04297 13.7358 4.07227 13.8872C4.10645 14.0386 4.16504 14.1826 4.24805 14.3193C4.33105 14.4512 4.44336 14.5635 4.58496 14.6562C4.73145 14.7441 4.91943 14.7881 5.14893 14.7881C5.42725 14.7881 5.65186 14.7295 5.82275 14.6123C5.99365 14.4902 6.13037 14.3315 6.23291 14.1362C6.33545 13.936 6.40869 13.7114 6.45264 13.4624C6.50146 13.2085 6.54053 12.9497 6.56982 12.686C6.59424 12.3784 6.62354 12.0171 6.65771 11.6021C6.69189 11.187 6.72607 10.7427 6.76025 10.269L6.97266 7.34668C6.98242 7.25879 6.9873 7.18555 6.9873 7.12695C6.99219 7.06836 6.99951 7.01953 7.00928 6.98047C7.01904 6.94141 7.03857 6.91211 7.06787 6.89258C7.10205 6.87305 7.15332 6.8584 7.22168 6.84863L9.71924 6.24072C9.78271 6.22119 9.84863 6.21143 9.91699 6.21143C9.98535 6.21143 10.0342 6.2334 10.0635 6.27734C10.0977 6.31641 10.1147 6.39941 10.1147 6.52637ZM17.3511 7.18555C17.3901 7.02441 17.4243 6.90723 17.4536 6.83398C17.4829 6.76074 17.5464 6.71191 17.644 6.6875L19.541 6.24072C19.5996 6.22119 19.6631 6.21143 19.7314 6.21143C19.7949 6.21143 19.8413 6.2334 19.8706 6.27734C19.8999 6.32129 19.9146 6.4043 19.9146 6.52637C19.8853 6.64355 19.8608 6.82422 19.8413 7.06836C19.8218 7.30762 19.8071 7.57129 19.7974 7.85938C19.7876 8.14746 19.7803 8.43799 19.7754 8.73096C19.7705 9.01904 19.7681 9.27051 19.7681 9.48535V9.88818C19.7681 10.1909 19.7656 10.5205 19.7607 10.877C19.7559 11.2334 19.7485 11.5947 19.7388 11.9609C19.7339 12.3271 19.7266 12.6885 19.7168 13.0449C19.707 13.4014 19.6973 13.7358 19.6875 14.0483L19.6436 15.3008C19.6387 15.3252 19.6362 15.3472 19.6362 15.3667C19.6362 15.3862 19.6362 15.4058 19.6362 15.4253V15.5352C19.6362 15.6182 19.6362 15.689 19.6362 15.7476C19.6411 15.8013 19.6436 15.8501 19.6436 15.894C19.6436 15.9429 19.6387 15.9868 19.6289 16.0259C19.624 16.0649 19.6069 16.104 19.5776 16.1431C19.5483 16.1772 19.5068 16.2139 19.4531 16.2529C19.4043 16.292 19.3359 16.3408 19.248 16.3994C19.1992 16.4336 19.1187 16.4849 19.0063 16.5532C18.894 16.6167 18.7695 16.6899 18.6328 16.7729C18.4961 16.856 18.3545 16.9414 18.208 17.0293C18.0615 17.1172 17.9272 17.1953 17.8052 17.2637C17.6831 17.3369 17.583 17.3955 17.5049 17.4395C17.4316 17.4834 17.395 17.5054 17.395 17.5054L13.9966 12.2759L13.689 16.5605C13.6841 16.5996 13.6743 16.6411 13.6597 16.6851C13.6499 16.729 13.6182 16.7632 13.5645 16.7876C13.5205 16.8071 13.4448 16.8389 13.3374 16.8828C13.23 16.9219 13.103 16.9683 12.9565 17.022C12.8149 17.0757 12.6636 17.1294 12.5024 17.1831C12.3462 17.2417 12.1973 17.293 12.0557 17.3369C11.9141 17.3857 11.7871 17.4248 11.6748 17.4541C11.5674 17.4834 11.4941 17.498 11.4551 17.498C11.3818 17.498 11.3208 17.4785 11.272 17.4395C11.2231 17.4004 11.1987 17.3296 11.1987 17.2271C11.2476 16.6167 11.3037 15.9526 11.3672 15.2349C11.4307 14.5122 11.4917 13.7725 11.5503 13.0156C11.6089 12.2588 11.6626 11.5044 11.7114 10.7524C11.7651 9.99561 11.8091 9.27783 11.8433 8.59912C11.8433 8.57959 11.8115 8.51611 11.748 8.40869C11.6895 8.29639 11.6211 8.17676 11.543 8.0498C11.4697 7.91797 11.4014 7.7959 11.3379 7.68359C11.2793 7.56641 11.25 7.49316 11.25 7.46387C11.25 7.42969 11.2671 7.39795 11.3013 7.36865C11.3403 7.33936 11.4014 7.30029 11.4844 7.25146L13.4399 6.14551C13.4546 6.14551 13.4741 6.14307 13.4985 6.13818C13.5278 6.1333 13.5522 6.13086 13.5718 6.13086C13.6255 6.13086 13.667 6.13818 13.6963 6.15283C13.7305 6.1626 13.7646 6.19922 13.7988 6.2627L17.3511 12.6714V7.18555ZM22.8223 17.2344C22.8467 16.8779 22.8711 16.5337 22.8955 16.2017C22.9199 15.8696 22.9419 15.5474 22.9614 15.2349L23.2251 11.7778C23.2544 11.5142 23.2788 11.2749 23.2983 11.0601C23.3179 10.8403 23.3325 10.6279 23.3423 10.4229C23.3569 10.2129 23.3691 10.0029 23.3789 9.79297C23.3936 9.57812 23.4082 9.34131 23.4229 9.08252C23.2617 9.07764 23.0908 9.0752 22.9102 9.0752C22.7344 9.0752 22.5488 9.0752 22.3535 9.0752H20.9399C20.8862 9.0752 20.8521 9.05566 20.8374 9.0166C20.8276 8.97266 20.8228 8.93359 20.8228 8.89941V8.84814L21.6284 6.73145L21.6211 6.70215C21.6211 6.67773 21.6357 6.6582 21.665 6.64355C21.6992 6.62402 21.7725 6.60937 21.8848 6.59961C22.5586 6.56055 23.2104 6.52393 23.8403 6.48975C24.4751 6.45068 25.1001 6.4165 25.7153 6.38721C26.3354 6.35791 26.9531 6.32861 27.5684 6.29932C28.1885 6.27002 28.8257 6.24316 29.48 6.21875C29.5386 6.21875 29.5996 6.22607 29.6631 6.24072C29.7314 6.25537 29.7656 6.30908 29.7656 6.40186C29.7656 6.41162 29.7632 6.42139 29.7583 6.43115C29.7534 6.44092 29.751 6.45068 29.751 6.46045C29.6729 6.66064 29.5996 6.85107 29.5312 7.03174C29.4678 7.2124 29.4043 7.39062 29.3408 7.56641C29.2773 7.74219 29.2114 7.92041 29.1431 8.10107C29.0796 8.28174 29.0088 8.47217 28.9307 8.67236C28.9258 8.67725 28.916 8.70166 28.9014 8.74561C28.8867 8.78467 28.8647 8.83105 28.8354 8.88477C28.8062 8.93359 28.7671 8.97998 28.7183 9.02393C28.6694 9.06787 28.6084 9.09229 28.5352 9.09717C28.5107 9.09229 28.4863 9.08984 28.4619 9.08984C28.4375 9.08984 28.4106 9.08984 28.3813 9.08984H26.4258C26.4014 9.33887 26.377 9.60254 26.3525 9.88086C26.333 10.1592 26.3086 10.4302 26.2793 10.6938L25.7446 16.4141C25.7397 16.458 25.73 16.502 25.7153 16.5459C25.7056 16.5898 25.6738 16.6216 25.6201 16.6411L23.5474 17.3882C23.4937 17.4077 23.4229 17.4321 23.335 17.4614C23.2471 17.4907 23.1616 17.5054 23.0786 17.5054C23.0103 17.5054 22.9492 17.4883 22.8955 17.4541C22.8467 17.4199 22.8223 17.3564 22.8223 17.2637V17.2344ZM28.2642 16.4653C28.3276 16.3384 28.3936 16.1968 28.4619 16.0405C28.5303 15.8794 28.5938 15.7061 28.6523 15.5205L28.8501 15.0371C28.7622 14.9053 28.6719 14.7637 28.5791 14.6123C28.4912 14.4561 28.4106 14.2974 28.3374 14.1362C28.2642 13.9751 28.2031 13.814 28.1543 13.6528C28.1104 13.4917 28.0884 13.3354 28.0884 13.1841C28.0884 13.1743 28.125 13.167 28.1982 13.1621C28.2764 13.1523 28.3716 13.145 28.4839 13.1401C28.6011 13.1353 28.7256 13.1328 28.8574 13.1328C28.9941 13.1279 29.1187 13.1255 29.231 13.1255C29.3481 13.1206 29.4434 13.1182 29.5166 13.1182C29.5947 13.1133 29.6338 13.1108 29.6338 13.1108C29.7461 12.8179 29.856 12.5396 29.9634 12.2759C30.0708 12.0122 30.1782 11.7461 30.2856 11.4775C30.3931 11.209 30.5005 10.9355 30.6079 10.6572C30.7153 10.374 30.8228 10.0713 30.9302 9.74902C31.1353 9.14355 31.3354 8.61133 31.5308 8.15234C31.7261 7.69336 31.9092 7.26611 32.0801 6.87061C32.0996 6.82178 32.1313 6.77783 32.1753 6.73877C32.2241 6.69482 32.2754 6.6582 32.3291 6.62891C32.3828 6.59961 32.4341 6.5752 32.4829 6.55566C32.5366 6.53613 32.5781 6.52148 32.6074 6.51172C32.627 6.50684 32.7002 6.48486 32.8271 6.4458C32.959 6.40674 33.1079 6.36523 33.2739 6.32129C33.4399 6.27734 33.6035 6.23828 33.7646 6.2041C33.9307 6.16992 34.0625 6.15283 34.1602 6.15283H34.292C34.3701 6.15283 34.4434 6.17236 34.5117 6.21143C34.585 6.24561 34.6338 6.31641 34.6582 6.42383C34.8926 7.02441 35.1416 7.68115 35.4053 8.39404C35.6738 9.10205 35.9351 9.8833 36.189 10.7378C36.3257 11.1968 36.46 11.6313 36.5918 12.0415C36.7236 12.4517 36.8555 12.8521 36.9873 13.2427C37.1191 13.6333 37.251 14.0239 37.3828 14.4146C37.5195 14.8052 37.6587 15.208 37.8003 15.623C37.8442 15.7988 37.8882 15.938 37.9321 16.0405C37.981 16.1431 38.0249 16.2236 38.064 16.2822C38.103 16.3408 38.1348 16.3848 38.1592 16.4141C38.1836 16.4385 38.1958 16.4653 38.1958 16.4946C38.1958 16.5239 38.1494 16.5532 38.0566 16.5825L36.4819 17.0952C36.3647 17.1392 36.2451 17.1831 36.123 17.2271C36.001 17.271 35.8862 17.3101 35.7788 17.3442C35.6714 17.3784 35.5762 17.4053 35.4932 17.4248C35.415 17.4492 35.3589 17.4614 35.3247 17.4614H35.2808C35.2124 17.4614 35.1636 17.4395 35.1343 17.3955C35.105 17.3564 35.0854 17.3174 35.0757 17.2783C35.0269 17.1172 34.978 16.9731 34.9292 16.8462C34.8804 16.7144 34.8315 16.585 34.7827 16.458C34.7388 16.3262 34.6924 16.187 34.6436 16.0405C34.5996 15.894 34.5557 15.7207 34.5117 15.5205C34.502 15.4961 34.4751 15.4766 34.4312 15.4619C34.3872 15.4424 34.3335 15.4277 34.27 15.418C34.2114 15.4082 34.1479 15.4033 34.0796 15.4033C34.0112 15.3984 33.9478 15.396 33.8892 15.396C33.7036 15.396 33.5522 15.3984 33.4351 15.4033C33.3228 15.4033 33.2227 15.4058 33.1348 15.4106C33.0469 15.4106 32.9614 15.4131 32.8784 15.418C32.8003 15.418 32.7026 15.418 32.5854 15.418C32.4438 15.418 32.2974 15.418 32.146 15.418C31.9995 15.4131 31.8652 15.4082 31.7432 15.4033L31.3257 15.3887C31.1987 15.7402 31.0718 16.0698 30.9448 16.3774C30.8179 16.6851 30.6812 17.0024 30.5347 17.3296C30.5249 17.3687 30.5005 17.4004 30.4614 17.4248C30.4272 17.4492 30.3906 17.4614 30.3516 17.4614C30.3223 17.4614 30.3052 17.459 30.3003 17.4541C29.8267 17.2832 29.4287 17.1147 29.1064 16.9487C28.7842 16.7827 28.5034 16.6216 28.2642 16.4653ZM33.2007 9.88086C33.0835 10.3154 32.9663 10.7109 32.8491 11.0674C32.7368 11.4189 32.6318 11.7314 32.5342 12.0049C32.4414 12.2783 32.3608 12.5103 32.2925 12.7007C32.2241 12.8862 32.1753 13.0303 32.146 13.1328V13.1987C32.146 13.228 32.1436 13.2476 32.1387 13.2573H33.8965C33.8428 13.0181 33.7842 12.7764 33.7207 12.5322C33.6621 12.2881 33.6035 12.0317 33.5449 11.7632C33.4863 11.4946 33.4277 11.2065 33.3691 10.8989C33.3105 10.5913 33.2544 10.252 33.2007 9.88086ZM38.5474 12.2686C38.5474 11.707 38.6108 11.1699 38.7378 10.6572C38.8696 10.1396 39.0552 9.65869 39.2944 9.21436C39.5337 8.76514 39.8218 8.35986 40.1587 7.99854C40.5005 7.63232 40.8813 7.31982 41.3013 7.06104C41.7212 6.79736 42.1753 6.59473 42.6636 6.45312C43.1567 6.31152 43.6743 6.24072 44.2163 6.24072C44.646 6.24072 45.022 6.27002 45.3442 6.32861C45.6714 6.38232 45.9546 6.45312 46.1938 6.54102C46.438 6.62402 46.6406 6.7168 46.8018 6.81934C46.9678 6.92188 47.1045 7.01953 47.2119 7.1123C47.207 7.1123 47.2046 7.12939 47.2046 7.16357C47.2046 7.23682 47.2095 7.37109 47.2192 7.56641C47.2339 7.76172 47.2485 7.979 47.2632 8.21826C47.2827 8.45752 47.2974 8.70166 47.3071 8.95068C47.3218 9.19482 47.3291 9.40723 47.3291 9.58789C47.3291 9.61719 47.3193 9.65137 47.2998 9.69043C47.2803 9.72461 47.2314 9.7417 47.1533 9.7417C47.1094 9.7417 47.0557 9.73438 46.9922 9.71973C46.8896 9.69043 46.7603 9.62451 46.604 9.52197C46.4478 9.41455 46.2646 9.30469 46.0547 9.19238C45.8496 9.0752 45.6177 8.97266 45.3589 8.88477C45.105 8.79199 44.8267 8.74561 44.5239 8.74561C44.1235 8.74561 43.7598 8.83105 43.4326 9.00195C43.1055 9.16797 42.8271 9.40234 42.5977 9.70508C42.3682 10.0029 42.1899 10.3594 42.063 10.7744C41.936 11.1846 41.8726 11.6313 41.8726 12.1147C41.8726 12.5396 41.9116 12.9375 41.9897 13.3086C42.0679 13.6797 42.1851 14.002 42.3413 14.2754C42.5024 14.5439 42.7002 14.7563 42.9346 14.9126C43.1689 15.0688 43.4448 15.147 43.7622 15.147C44.0698 15.147 44.4189 15.0811 44.8096 14.9492L44.978 13.9165H43.5791C43.6865 13.3257 43.7793 12.8618 43.8574 12.5249C43.9355 12.188 44.0088 11.9341 44.0771 11.7632C44.1455 11.5923 44.2163 11.4849 44.2896 11.4409C44.3628 11.397 44.4482 11.375 44.5459 11.375H48.3984C48.5107 11.375 48.5913 11.3823 48.6401 11.397C48.6938 11.4116 48.7207 11.4629 48.7207 11.5508C48.7207 11.5947 48.7158 11.6484 48.7061 11.7119C48.6963 11.7705 48.6841 11.8438 48.6694 11.9316L48.3032 13.1621C48.2593 13.3184 48.2227 13.4404 48.1934 13.5283C48.1641 13.6113 48.1274 13.6748 48.0835 13.7188C48.0396 13.7578 47.9785 13.7822 47.9004 13.792C47.8271 13.7969 47.7197 13.7993 47.5781 13.7993C47.5 13.7993 47.4536 13.8311 47.439 13.8945C47.4243 13.958 47.4121 14.0239 47.4023 14.0923C47.373 14.3071 47.3438 14.522 47.3145 14.7368C47.2852 14.9468 47.2559 15.1445 47.2266 15.3301C47.2021 15.5107 47.1753 15.6719 47.146 15.8135C47.1167 15.9502 47.0874 16.0503 47.0581 16.1138C46.7261 16.3237 46.4233 16.5093 46.1499 16.6704C45.8813 16.8267 45.6128 16.9561 45.3442 17.0586C45.0757 17.166 44.7925 17.2466 44.4946 17.3003C44.1968 17.354 43.855 17.3809 43.4692 17.3809C42.7808 17.3809 42.1362 17.2563 41.5356 17.0073C40.9351 16.7583 40.4126 16.4092 39.9683 15.96C39.5288 15.5059 39.1821 14.9663 38.9282 14.3413C38.6743 13.7163 38.5474 13.0254 38.5474 12.2686Z" fill="white"/>
<rect x="52.3393" width="23.6607" height="23" rx="11.5" fill="white"/>
<path d="M61.3711 9.39844C61.3678 9.67839 61.3402 9.92904 61.2881 10.1504C61.2393 10.3717 61.1676 10.5719 61.0732 10.751C60.9821 10.9268 60.8698 11.0863 60.7363 11.2295C60.6061 11.3695 60.4564 11.5013 60.2871 11.625C59.9616 11.8594 59.6051 12.0368 59.2178 12.1572C58.8304 12.2744 58.4414 12.333 58.0508 12.333C57.9857 12.333 57.9206 12.3314 57.8555 12.3281C57.7936 12.3249 57.7301 12.32 57.665 12.3135L57.5039 14.0957L57.4209 14.2471C57.4144 14.2601 57.359 14.2861 57.2549 14.3252C57.1507 14.3643 57.0205 14.4098 56.8643 14.4619L56.5566 14.5645C56.459 14.6003 56.3727 14.6328 56.2979 14.6621C56.223 14.6914 56.153 14.7174 56.0879 14.7402C56.0228 14.763 55.9593 14.7793 55.8975 14.7891C55.8356 14.8021 55.7705 14.8086 55.7021 14.8086C55.6566 14.8086 55.6208 14.7972 55.5947 14.7744C55.5687 14.7516 55.5557 14.7077 55.5557 14.6426L55.6094 13.8076C55.6191 13.6416 55.6305 13.4756 55.6436 13.3096C55.6598 13.1403 55.6745 12.9482 55.6875 12.7334L55.7803 11.5664C55.7998 11.3288 55.8177 11.0911 55.834 10.8535C55.8503 10.6159 55.8665 10.3896 55.8828 10.1748C55.8991 9.95996 55.9137 9.75977 55.9268 9.57422C55.9398 9.38542 55.9512 9.22103 55.9609 9.08105C55.7852 9.12012 55.6436 9.14941 55.5361 9.16895C55.432 9.18522 55.3522 9.19336 55.2969 9.19336C55.2285 9.19336 55.1943 9.16406 55.1943 9.10547C55.2399 8.94596 55.2822 8.78971 55.3213 8.63672C55.3571 8.50651 55.3929 8.37305 55.4287 8.23633C55.4678 8.09635 55.5003 7.97917 55.5264 7.88477C55.5426 7.82617 55.5605 7.78223 55.5801 7.75293C55.6029 7.72038 55.6305 7.69596 55.6631 7.67969C55.6989 7.66016 55.7428 7.64388 55.7949 7.63086C55.8503 7.61458 55.917 7.59342 55.9951 7.56738C56.057 7.54785 56.1432 7.52669 56.2539 7.50391C56.3678 7.47786 56.4964 7.45345 56.6396 7.43066C56.7861 7.40462 56.944 7.38021 57.1133 7.35742C57.2826 7.33464 57.4535 7.3151 57.626 7.29883C57.8018 7.2793 57.9743 7.26465 58.1436 7.25488C58.3128 7.24186 58.4723 7.23535 58.6221 7.23535C58.9932 7.23535 59.3447 7.26953 59.6768 7.33789C60.0088 7.40625 60.3001 7.52344 60.5508 7.68945C60.8014 7.85221 61 8.07357 61.1465 8.35352C61.2962 8.63021 61.3711 8.97852 61.3711 9.39844ZM57.8018 10.8633C57.8018 10.8991 57.8083 10.9316 57.8213 10.9609C57.8343 10.987 57.8701 11 57.9287 11C58.0199 11 58.1273 10.9805 58.251 10.9414C58.3779 10.8991 58.5033 10.8372 58.627 10.7559C58.7539 10.6745 58.8711 10.5736 58.9785 10.4531C59.0859 10.3327 59.1673 10.1911 59.2227 10.0283C59.2454 9.96322 59.2633 9.88021 59.2764 9.7793C59.2926 9.67839 59.3008 9.55957 59.3008 9.42285C59.3008 9.19499 59.221 9.02734 59.0615 8.91992C58.9053 8.8125 58.7002 8.75879 58.4463 8.75879C58.404 8.75879 58.3551 8.76204 58.2998 8.76855C58.2477 8.77181 58.1973 8.77995 58.1484 8.79297C58.1029 8.80599 58.0638 8.82227 58.0312 8.8418C57.9987 8.85807 57.9808 8.88086 57.9775 8.91016L57.9678 9.01758C57.9645 9.0599 57.958 9.12988 57.9482 9.22754C57.9385 9.32194 57.9271 9.43099 57.9141 9.55469C57.9043 9.67839 57.8929 9.80859 57.8799 9.94531C57.8701 10.082 57.8587 10.2122 57.8457 10.3359C57.8359 10.4596 57.8262 10.5687 57.8164 10.6631C57.8099 10.7575 57.805 10.8242 57.8018 10.8633ZM61.0488 14.1152C61.0911 14.0306 61.1351 13.9362 61.1807 13.832C61.2262 13.7246 61.2686 13.609 61.3076 13.4854L61.4395 13.1631C61.3809 13.0752 61.3206 12.9808 61.2588 12.8799C61.2002 12.7757 61.1465 12.6699 61.0977 12.5625C61.0488 12.4551 61.0081 12.3477 60.9756 12.2402C60.9463 12.1328 60.9316 12.0286 60.9316 11.9277C60.9316 11.9212 60.9561 11.9163 61.0049 11.9131C61.057 11.9066 61.1204 11.9017 61.1953 11.8984C61.2734 11.8952 61.3564 11.8936 61.4443 11.8936C61.5355 11.8903 61.6185 11.8887 61.6934 11.8887C61.7715 11.8854 61.835 11.8838 61.8838 11.8838C61.9359 11.8805 61.9619 11.8789 61.9619 11.8789C62.0368 11.6836 62.11 11.498 62.1816 11.3223C62.2533 11.1465 62.3249 10.9691 62.3965 10.79C62.4681 10.611 62.5397 10.4287 62.6113 10.2432C62.6829 10.0544 62.7546 9.85254 62.8262 9.6377C62.9629 9.23405 63.0964 8.87923 63.2266 8.57324C63.3568 8.26725 63.4788 7.98242 63.5928 7.71875C63.6058 7.6862 63.627 7.6569 63.6562 7.63086C63.6888 7.60156 63.723 7.57715 63.7588 7.55762C63.7946 7.53809 63.8288 7.52181 63.8613 7.50879C63.8971 7.49577 63.9248 7.486 63.9443 7.47949C63.9574 7.47624 64.0062 7.46159 64.0908 7.43555C64.1787 7.40951 64.278 7.38184 64.3887 7.35254C64.4993 7.32324 64.6084 7.2972 64.7158 7.27441C64.8265 7.25163 64.9144 7.24023 64.9795 7.24023H65.0674C65.1195 7.24023 65.1683 7.25326 65.2139 7.2793C65.2627 7.30208 65.2952 7.34928 65.3115 7.4209C65.4678 7.82129 65.6338 8.25911 65.8096 8.73438C65.9886 9.20638 66.1628 9.72721 66.332 10.2969C66.4232 10.6029 66.5127 10.8926 66.6006 11.166C66.6885 11.4395 66.7764 11.7064 66.8643 11.9668C66.9521 12.2272 67.04 12.4876 67.1279 12.748C67.2191 13.0085 67.3118 13.277 67.4062 13.5537C67.4355 13.6709 67.4648 13.7637 67.4941 13.832C67.5267 13.9004 67.556 13.9541 67.582 13.9932C67.6081 14.0322 67.6292 14.0615 67.6455 14.0811C67.6618 14.0973 67.6699 14.1152 67.6699 14.1348C67.6699 14.1543 67.639 14.1738 67.5771 14.1934L66.5273 14.5352C66.4492 14.5645 66.3695 14.5938 66.2881 14.623C66.2067 14.6523 66.1302 14.6784 66.0586 14.7012C65.987 14.724 65.9235 14.7419 65.8682 14.7549C65.8161 14.7712 65.7786 14.7793 65.7559 14.7793H65.7266C65.681 14.7793 65.6484 14.7646 65.6289 14.7354C65.6094 14.7093 65.5964 14.6833 65.5898 14.6572C65.5573 14.5498 65.5247 14.4538 65.4922 14.3691C65.4596 14.2812 65.4271 14.195 65.3945 14.1104C65.3652 14.0225 65.3343 13.9297 65.3018 13.832C65.2725 13.7344 65.2432 13.6188 65.2139 13.4854C65.2074 13.4691 65.1895 13.4561 65.1602 13.4463C65.1309 13.4333 65.0951 13.4235 65.0527 13.417C65.0137 13.4105 64.9714 13.4072 64.9258 13.4072C64.8802 13.404 64.8379 13.4023 64.7988 13.4023C64.6751 13.4023 64.5742 13.404 64.4961 13.4072C64.4212 13.4072 64.3545 13.4089 64.2959 13.4121C64.2373 13.4121 64.1803 13.4137 64.125 13.417C64.0729 13.417 64.0078 13.417 63.9297 13.417C63.8353 13.417 63.7376 13.417 63.6367 13.417C63.5391 13.4137 63.4495 13.4105 63.3682 13.4072L63.0898 13.3975C63.0052 13.6318 62.9206 13.8516 62.8359 14.0566C62.7513 14.2617 62.6602 14.4733 62.5625 14.6914C62.556 14.7174 62.5397 14.7386 62.5137 14.7549C62.4909 14.7712 62.4665 14.7793 62.4404 14.7793C62.4209 14.7793 62.4095 14.7777 62.4062 14.7744C62.0905 14.6605 61.8252 14.5482 61.6104 14.4375C61.3955 14.3268 61.2083 14.2194 61.0488 14.1152ZM64.3398 9.72559C64.2617 10.0153 64.1836 10.279 64.1055 10.5166C64.0306 10.751 63.9606 10.9593 63.8955 11.1416C63.8337 11.3239 63.7799 11.4785 63.7344 11.6055C63.6888 11.7292 63.6562 11.8252 63.6367 11.8936V11.9375C63.6367 11.957 63.6351 11.9701 63.6318 11.9766H64.8037C64.7679 11.8171 64.7288 11.6559 64.6865 11.4932C64.6475 11.3304 64.6084 11.1595 64.5693 10.9805C64.5303 10.8014 64.4912 10.6094 64.4521 10.4043C64.4131 10.1992 64.3757 9.97298 64.3398 9.72559ZM67.6016 7.96777C67.6211 7.95475 67.6536 7.93848 67.6992 7.91895C67.748 7.89616 67.8034 7.87174 67.8652 7.8457C67.9303 7.81966 67.9987 7.79199 68.0703 7.7627C68.1452 7.73014 68.2201 7.69922 68.2949 7.66992L68.8613 7.44531C68.9036 7.42578 68.9427 7.41602 68.9785 7.41602C69.0046 7.41602 69.0322 7.42415 69.0615 7.44043C69.0941 7.45345 69.1299 7.47949 69.1689 7.51855L70.2969 9.70605L70.3262 9.63281L70.8096 8.73926C70.8714 8.62858 70.9316 8.51953 70.9902 8.41211C71.0521 8.30469 71.1058 8.20866 71.1514 8.12402C71.2002 8.03939 71.2409 7.97103 71.2734 7.91895C71.306 7.86686 71.3255 7.84082 71.332 7.84082L73.0068 7.4209C73.0459 7.41113 73.0785 7.40625 73.1045 7.40625C73.1794 7.40625 73.2168 7.44043 73.2168 7.50879C73.2135 7.52507 73.2103 7.54785 73.207 7.57715C73.2038 7.60319 73.194 7.63249 73.1777 7.66504L71.7422 10.3262C71.6706 10.4596 71.5973 10.5931 71.5225 10.7266C71.4508 10.86 71.3809 10.987 71.3125 11.1074C71.2441 11.2246 71.1823 11.332 71.127 11.4297C71.0749 11.5273 71.0326 11.6071 71 11.6689L70.9658 11.8301L70.6924 13.6611C70.6826 13.7165 70.6745 13.762 70.668 13.7979C70.6615 13.8337 70.6517 13.863 70.6387 13.8857C70.6289 13.9085 70.6143 13.9281 70.5947 13.9443C70.5785 13.9606 70.554 13.9769 70.5215 13.9932L69.1348 14.7207C69.0827 14.7467 69.0273 14.7679 68.9688 14.7842C68.9134 14.8005 68.8597 14.8086 68.8076 14.8086C68.7523 14.8086 68.7051 14.7956 68.666 14.7695C68.627 14.7467 68.6074 14.7077 68.6074 14.6523V14.6328C68.6204 14.4473 68.6432 14.2324 68.6758 13.9883C68.7116 13.7409 68.749 13.5 68.7881 13.2656L69.0615 11.4541C69.0094 11.3434 68.9411 11.1969 68.8564 11.0146C68.7718 10.8324 68.6807 10.6354 68.583 10.4238C68.4854 10.2122 68.3828 9.99414 68.2754 9.76953C68.1712 9.54492 68.0719 9.33333 67.9775 9.13477C67.8864 8.93294 67.8034 8.75553 67.7285 8.60254C67.6569 8.44954 67.6032 8.33724 67.5674 8.26562C67.5511 8.2168 67.543 8.16634 67.543 8.11426C67.543 8.08496 67.5462 8.05729 67.5527 8.03125C67.5625 8.00195 67.5788 7.98079 67.6016 7.96777Z" fill="#E00120"/>
</svg>
