<svg width="103" height="32" viewBox="0 0 103 32" fill="none" xmlns="http://www.w3.org/2000/svg">
<path d="M15.75 8.03516C15.737 8.21094 15.7142 8.47135 15.6816 8.81641C15.6491 9.15495 15.61 9.54232 15.5645 9.97852C15.5254 10.4082 15.4831 10.8607 15.4375 11.3359C15.3919 11.8112 15.3464 12.2669 15.3008 12.7031C15.2617 13.1328 15.2259 13.5234 15.1934 13.875C15.1608 14.2266 15.138 14.4902 15.125 14.666C14.9883 16.0527 14.7539 17.2441 14.4219 18.2402C14.0964 19.2298 13.6667 20.0404 13.1328 20.6719C12.599 21.3034 11.9577 21.7656 11.209 22.0586C10.4668 22.3581 9.60742 22.5078 8.63086 22.5078C7.96029 22.5078 7.32878 22.3841 6.73633 22.1367C6.14388 21.8958 5.6263 21.554 5.18359 21.1113C4.74089 20.6686 4.38932 20.138 4.12891 19.5195C3.875 18.8945 3.74805 18.2012 3.74805 17.4395C3.74805 17.3418 3.75456 17.166 3.76758 16.9121C3.78711 16.6517 3.8099 16.3359 3.83594 15.9648C3.86849 15.5938 3.90104 15.1738 3.93359 14.7051C3.97266 14.2298 4.01172 13.7253 4.05078 13.1914L4.16797 11.5703C4.20703 10.9779 4.23633 10.4863 4.25586 10.0957C4.27539 9.69857 4.29492 9.37956 4.31445 9.13867C4.34049 8.89779 4.3763 8.72201 4.42188 8.61133C4.46745 8.50065 4.53906 8.42904 4.63672 8.39648L7.9668 7.6543C8.05143 7.62826 8.13932 7.61523 8.23047 7.61523C8.33464 7.61523 8.40299 7.64453 8.43555 7.70312C8.47461 7.76172 8.49414 7.8724 8.49414 8.03516L7.75195 15.7305C7.73893 15.9583 7.71615 16.2057 7.68359 16.4727C7.65104 16.7396 7.63477 17.013 7.63477 17.293C7.63477 17.4622 7.6543 17.6478 7.69336 17.8496C7.73893 18.0514 7.81706 18.2435 7.92773 18.4258C8.03841 18.6016 8.18815 18.7513 8.37695 18.875C8.57227 18.9922 8.82292 19.0508 9.12891 19.0508C9.5 19.0508 9.79948 18.9727 10.0273 18.8164C10.2552 18.6536 10.4375 18.4421 10.5742 18.1816C10.7109 17.9147 10.8086 17.6152 10.8672 17.2832C10.9323 16.9447 10.9844 16.5996 11.0234 16.248C11.056 15.8379 11.0951 15.3561 11.1406 14.8027C11.1862 14.2493 11.2318 13.6569 11.2773 13.0254L11.5605 9.12891C11.5736 9.01172 11.5801 8.91406 11.5801 8.83594C11.5866 8.75781 11.5964 8.69271 11.6094 8.64062C11.6224 8.58854 11.6484 8.54948 11.6875 8.52344C11.7331 8.4974 11.8014 8.47786 11.8926 8.46484L15.2227 7.6543C15.3073 7.62826 15.3952 7.61523 15.4863 7.61523C15.5775 7.61523 15.6426 7.64453 15.6816 7.70312C15.7272 7.75521 15.75 7.86589 15.75 8.03516ZM25.3984 8.91406C25.4505 8.69922 25.4961 8.54297 25.5352 8.44531C25.5742 8.34766 25.6589 8.28255 25.7891 8.25L28.3184 7.6543C28.3965 7.62826 28.4811 7.61523 28.5723 7.61523C28.6569 7.61523 28.7188 7.64453 28.7578 7.70312C28.7969 7.76172 28.8164 7.8724 28.8164 8.03516C28.7773 8.19141 28.7448 8.43229 28.7188 8.75781C28.6927 9.07682 28.6732 9.42839 28.6602 9.8125C28.6471 10.1966 28.6374 10.584 28.6309 10.9746C28.6243 11.3587 28.6211 11.694 28.6211 11.9805V12.5176C28.6211 12.9212 28.6178 13.3607 28.6113 13.8359C28.6048 14.3112 28.5951 14.793 28.582 15.2812C28.5755 15.7695 28.5658 16.2513 28.5527 16.7266C28.5397 17.2018 28.5267 17.6478 28.5137 18.0645L28.4551 19.7344C28.4486 19.7669 28.4453 19.7962 28.4453 19.8223C28.4453 19.8483 28.4453 19.8743 28.4453 19.9004V20.0469C28.4453 20.1576 28.4453 20.252 28.4453 20.3301C28.4518 20.4017 28.4551 20.4668 28.4551 20.5254C28.4551 20.5905 28.4486 20.6491 28.4355 20.7012C28.429 20.7533 28.4062 20.8053 28.3672 20.8574C28.3281 20.903 28.2728 20.9518 28.2012 21.0039C28.1361 21.056 28.0449 21.1211 27.9277 21.1992C27.8626 21.2448 27.7552 21.3132 27.6055 21.4043C27.4557 21.4889 27.2897 21.5866 27.1074 21.6973C26.9251 21.8079 26.7363 21.9219 26.541 22.0391C26.3457 22.1562 26.1667 22.2604 26.0039 22.3516C25.8411 22.4492 25.7077 22.5273 25.6035 22.5859C25.5059 22.6445 25.457 22.6738 25.457 22.6738L20.9258 15.7012L20.5156 21.4141C20.5091 21.4661 20.4961 21.5215 20.4766 21.5801C20.4635 21.6387 20.4212 21.6842 20.3496 21.7168C20.291 21.7428 20.1901 21.7852 20.0469 21.8438C19.9036 21.8958 19.7344 21.9577 19.5391 22.0293C19.3503 22.1009 19.1484 22.1725 18.9336 22.2441C18.7253 22.3223 18.5267 22.3906 18.3379 22.4492C18.1491 22.5143 17.9798 22.5664 17.8301 22.6055C17.6868 22.6445 17.5892 22.6641 17.5371 22.6641C17.4395 22.6641 17.3581 22.638 17.293 22.5859C17.2279 22.5339 17.1953 22.4395 17.1953 22.3027C17.2604 21.4889 17.3353 20.6035 17.4199 19.6465C17.5046 18.6829 17.5859 17.6966 17.6641 16.6875C17.7422 15.6784 17.8138 14.6725 17.8789 13.6699C17.9505 12.6608 18.0091 11.7038 18.0547 10.7988C18.0547 10.7728 18.0124 10.6882 17.9277 10.5449C17.8496 10.3952 17.7585 10.2357 17.6543 10.0664C17.5566 9.89062 17.4655 9.72786 17.3809 9.57812C17.3027 9.42188 17.2637 9.32422 17.2637 9.28516C17.2637 9.23958 17.2865 9.19727 17.332 9.1582C17.3841 9.11914 17.4655 9.06706 17.5762 9.00195L20.1836 7.52734C20.2031 7.52734 20.2292 7.52409 20.2617 7.51758C20.3008 7.51107 20.3333 7.50781 20.3594 7.50781C20.431 7.50781 20.4863 7.51758 20.5254 7.53711C20.571 7.55013 20.6165 7.59896 20.6621 7.68359L25.3984 16.2285V8.91406ZM32.6934 22.3125C32.7259 21.8372 32.7585 21.3783 32.791 20.9355C32.8236 20.4928 32.8529 20.0632 32.8789 19.6465L33.2305 15.0371C33.2695 14.6855 33.3021 14.3665 33.3281 14.0801C33.3542 13.7871 33.3737 13.5039 33.3867 13.2305C33.4062 12.9505 33.4225 12.6706 33.4355 12.3906C33.4551 12.1042 33.4746 11.7884 33.4941 11.4434C33.2793 11.4368 33.0514 11.4336 32.8105 11.4336C32.5762 11.4336 32.3288 11.4336 32.0684 11.4336H30.1836C30.112 11.4336 30.0664 11.4076 30.0469 11.3555C30.0339 11.2969 30.0273 11.2448 30.0273 11.1992V11.1309L31.1016 8.30859L31.0918 8.26953C31.0918 8.23698 31.1113 8.21094 31.1504 8.19141C31.196 8.16536 31.2936 8.14583 31.4434 8.13281C32.3418 8.08073 33.2109 8.0319 34.0508 7.98633C34.8971 7.93424 35.7305 7.88867 36.5508 7.84961C37.3776 7.81055 38.2012 7.77148 39.0215 7.73242C39.8483 7.69336 40.6979 7.65755 41.5703 7.625C41.6484 7.625 41.7298 7.63477 41.8145 7.6543C41.9056 7.67383 41.9512 7.74544 41.9512 7.86914C41.9512 7.88216 41.9479 7.89518 41.9414 7.9082C41.9349 7.92122 41.9316 7.93424 41.9316 7.94727C41.8275 8.21419 41.7298 8.4681 41.6387 8.70898C41.554 8.94987 41.4694 9.1875 41.3848 9.42188C41.3001 9.65625 41.2122 9.89388 41.1211 10.1348C41.0365 10.3757 40.9421 10.6296 40.8379 10.8965C40.8314 10.903 40.8184 10.9355 40.7988 10.9941C40.7793 11.0462 40.75 11.1081 40.7109 11.1797C40.6719 11.2448 40.6198 11.3066 40.5547 11.3652C40.4896 11.4238 40.4082 11.4564 40.3105 11.4629C40.278 11.4564 40.2454 11.4531 40.2129 11.4531C40.1803 11.4531 40.1445 11.4531 40.1055 11.4531H37.498C37.4655 11.7852 37.4329 12.1367 37.4004 12.5078C37.3743 12.8789 37.3418 13.2402 37.3027 13.5918L36.5898 21.2188C36.5833 21.2773 36.5703 21.3359 36.5508 21.3945C36.5378 21.4531 36.4954 21.4954 36.4238 21.5215L33.6602 22.5176C33.5885 22.5436 33.4941 22.5762 33.377 22.6152C33.2598 22.6543 33.1458 22.6738 33.0352 22.6738C32.944 22.6738 32.8626 22.651 32.791 22.6055C32.7259 22.5599 32.6934 22.4753 32.6934 22.3516V22.3125ZM39.9492 21.2871C40.0339 21.1178 40.1217 20.929 40.2129 20.7207C40.304 20.5059 40.3887 20.2747 40.4668 20.0273L40.7305 19.3828C40.6133 19.207 40.4928 19.0182 40.3691 18.8164C40.252 18.6081 40.1445 18.3965 40.0469 18.1816C39.9492 17.9668 39.8678 17.752 39.8027 17.5371C39.7441 17.3223 39.7148 17.1139 39.7148 16.9121C39.7148 16.8991 39.7637 16.8893 39.8613 16.8828C39.9655 16.8698 40.0924 16.86 40.2422 16.8535C40.3984 16.847 40.5645 16.8438 40.7402 16.8438C40.9225 16.8372 41.0885 16.834 41.2383 16.834C41.3945 16.8275 41.5215 16.8242 41.6191 16.8242C41.7233 16.8177 41.7754 16.8145 41.7754 16.8145C41.9251 16.4238 42.0716 16.0527 42.2148 15.7012C42.3581 15.3496 42.5013 14.9948 42.6445 14.6367C42.7878 14.2786 42.931 13.9141 43.0742 13.543C43.2174 13.1654 43.3607 12.7617 43.5039 12.332C43.7773 11.5247 44.0443 10.8151 44.3047 10.2031C44.5651 9.59115 44.8092 9.02148 45.0371 8.49414C45.0632 8.42904 45.1055 8.37044 45.1641 8.31836C45.2292 8.25977 45.2975 8.21094 45.3691 8.17188C45.4408 8.13281 45.5091 8.10026 45.5742 8.07422C45.6458 8.04818 45.7012 8.02865 45.7402 8.01562C45.7663 8.00911 45.8639 7.97982 46.0332 7.92773C46.209 7.87565 46.4076 7.82031 46.6289 7.76172C46.8503 7.70312 47.0684 7.65104 47.2832 7.60547C47.5046 7.5599 47.6803 7.53711 47.8105 7.53711H47.9863C48.0905 7.53711 48.1882 7.56315 48.2793 7.61523C48.377 7.66081 48.4421 7.75521 48.4746 7.89844C48.7871 8.69922 49.1191 9.57487 49.4707 10.5254C49.8288 11.4694 50.1771 12.5111 50.5156 13.6504C50.6979 14.2624 50.877 14.8418 51.0527 15.3887C51.2285 15.9355 51.4043 16.4694 51.5801 16.9902C51.7559 17.5111 51.9316 18.0319 52.1074 18.5527C52.2897 19.0736 52.4753 19.6107 52.6641 20.1641C52.7227 20.3984 52.7812 20.584 52.8398 20.7207C52.9049 20.8574 52.9635 20.9648 53.0156 21.043C53.0677 21.1211 53.11 21.1797 53.1426 21.2188C53.1751 21.2513 53.1914 21.2871 53.1914 21.3262C53.1914 21.3652 53.1296 21.4043 53.0059 21.4434L50.9062 22.127C50.75 22.1855 50.5905 22.2441 50.4277 22.3027C50.265 22.3613 50.112 22.4134 49.9688 22.459C49.8255 22.5046 49.6986 22.5404 49.5879 22.5664C49.4837 22.599 49.4089 22.6152 49.3633 22.6152H49.3047C49.2135 22.6152 49.1484 22.5859 49.1094 22.5273C49.0703 22.4753 49.0443 22.4232 49.0312 22.3711C48.9661 22.1562 48.901 21.9642 48.8359 21.7949C48.7708 21.6191 48.7057 21.4466 48.6406 21.2773C48.582 21.1016 48.5202 20.916 48.4551 20.7207C48.3965 20.5254 48.3379 20.2943 48.2793 20.0273C48.2663 19.9948 48.2305 19.9688 48.1719 19.9492C48.1133 19.9232 48.0417 19.9036 47.957 19.8906C47.8789 19.8776 47.7943 19.8711 47.7031 19.8711C47.612 19.8646 47.5273 19.8613 47.4492 19.8613C47.2018 19.8613 47 19.8646 46.8438 19.8711C46.694 19.8711 46.5605 19.8743 46.4434 19.8809C46.3262 19.8809 46.2122 19.8841 46.1016 19.8906C45.9974 19.8906 45.8672 19.8906 45.7109 19.8906C45.5221 19.8906 45.3268 19.8906 45.125 19.8906C44.9297 19.8841 44.7507 19.8776 44.5879 19.8711L44.0312 19.8516C43.862 20.3203 43.6927 20.7598 43.5234 21.1699C43.3542 21.5801 43.1719 22.0033 42.9766 22.4395C42.9635 22.4915 42.931 22.5339 42.8789 22.5664C42.8333 22.599 42.7845 22.6152 42.7324 22.6152C42.6934 22.6152 42.6706 22.612 42.6641 22.6055C42.0326 22.3776 41.502 22.153 41.0723 21.9316C40.6426 21.7103 40.2682 21.4954 39.9492 21.2871ZM46.5312 12.5078C46.375 13.0872 46.2188 13.6146 46.0625 14.0898C45.9128 14.5586 45.7728 14.9753 45.6426 15.3398C45.5189 15.7044 45.4115 16.0137 45.3203 16.2676C45.2292 16.515 45.1641 16.707 45.125 16.8438V16.9316C45.125 16.9707 45.1217 16.9967 45.1152 17.0098H47.459C47.3874 16.6908 47.3092 16.3685 47.2246 16.043C47.1465 15.7174 47.0684 15.3757 46.9902 15.0176C46.9121 14.6595 46.834 14.2754 46.7559 13.8652C46.6777 13.4551 46.6029 13.0026 46.5312 12.5078ZM53.6602 15.6914C53.6602 14.9427 53.7448 14.2266 53.9141 13.543C54.0898 12.8529 54.3372 12.2116 54.6562 11.6191C54.9753 11.0202 55.3594 10.4798 55.8086 9.99805C56.2643 9.50977 56.7721 9.0931 57.332 8.74805C57.8919 8.39648 58.4974 8.1263 59.1484 7.9375C59.806 7.7487 60.4961 7.6543 61.2188 7.6543C61.7917 7.6543 62.293 7.69336 62.7227 7.77148C63.1589 7.8431 63.5365 7.9375 63.8555 8.05469C64.181 8.16536 64.4512 8.28906 64.666 8.42578C64.8874 8.5625 65.0697 8.69271 65.2129 8.81641C65.2064 8.81641 65.2031 8.83919 65.2031 8.88477C65.2031 8.98242 65.2096 9.16146 65.2227 9.42188C65.2422 9.68229 65.2617 9.97201 65.2812 10.291C65.3073 10.61 65.3268 10.9355 65.3398 11.2676C65.3594 11.5931 65.3691 11.8763 65.3691 12.1172C65.3691 12.1562 65.3561 12.2018 65.3301 12.2539C65.304 12.2995 65.2389 12.3223 65.1348 12.3223C65.0762 12.3223 65.0046 12.3125 64.9199 12.293C64.7832 12.2539 64.6107 12.166 64.4023 12.0293C64.194 11.8861 63.9499 11.7396 63.6699 11.5898C63.3965 11.4336 63.0872 11.2969 62.7422 11.1797C62.4036 11.056 62.0326 10.9941 61.6289 10.9941C61.0951 10.9941 60.61 11.1081 60.1738 11.3359C59.7376 11.5573 59.3665 11.8698 59.0605 12.2734C58.7546 12.6706 58.5169 13.1458 58.3477 13.6992C58.1784 14.2461 58.0938 14.8418 58.0938 15.4863C58.0938 16.0527 58.1458 16.5833 58.25 17.0781C58.3542 17.5729 58.5104 18.0026 58.7188 18.3672C58.9336 18.7253 59.1973 19.0085 59.5098 19.2168C59.8223 19.4251 60.1901 19.5293 60.6133 19.5293C61.0234 19.5293 61.4889 19.4414 62.0098 19.2656L62.2344 17.8887H60.3691C60.5124 17.1009 60.6361 16.4824 60.7402 16.0332C60.8444 15.584 60.9421 15.2454 61.0332 15.0176C61.1243 14.7897 61.2188 14.6465 61.3164 14.5879C61.4141 14.5293 61.528 14.5 61.6582 14.5H66.7949C66.9447 14.5 67.0521 14.5098 67.1172 14.5293C67.1888 14.5488 67.2246 14.6172 67.2246 14.7344C67.2246 14.793 67.2181 14.8646 67.2051 14.9492C67.1921 15.0273 67.1758 15.125 67.1562 15.2422L66.668 16.8828C66.6094 17.0911 66.5605 17.2539 66.5215 17.3711C66.4824 17.4818 66.4336 17.5664 66.375 17.625C66.3164 17.6771 66.235 17.7096 66.1309 17.7227C66.0332 17.7292 65.89 17.7324 65.7012 17.7324C65.597 17.7324 65.5352 17.7747 65.5156 17.8594C65.4961 17.944 65.4798 18.0319 65.4668 18.123C65.4277 18.4095 65.3887 18.696 65.3496 18.9824C65.3105 19.2624 65.2715 19.526 65.2324 19.7734C65.1999 20.0143 65.1641 20.2292 65.125 20.418C65.0859 20.6003 65.0469 20.7337 65.0078 20.8184C64.5651 21.0983 64.1615 21.3457 63.7969 21.5605C63.4388 21.7689 63.0807 21.9414 62.7227 22.0781C62.3646 22.2214 61.987 22.3288 61.5898 22.4004C61.1927 22.472 60.737 22.5078 60.2227 22.5078C59.3047 22.5078 58.4453 22.3418 57.6445 22.0098C56.8438 21.6777 56.1471 21.2122 55.5547 20.6133C54.9688 20.0078 54.5065 19.2884 54.168 18.4551C53.8294 17.6217 53.6602 16.7005 53.6602 15.6914Z" fill="white"/>
<rect x="71" width="32" height="32" rx="16" fill="white"/>
<path d="M83.9453 13.9121C83.9414 14.248 83.9082 14.5488 83.8457 14.8145C83.7871 15.0801 83.7012 15.3203 83.5879 15.5352C83.4785 15.7461 83.3438 15.9375 83.1836 16.1094C83.0273 16.2773 82.8477 16.4355 82.6445 16.584C82.2539 16.8652 81.8262 17.0781 81.3613 17.2227C80.8965 17.3633 80.4297 17.4336 79.9609 17.4336C79.8828 17.4336 79.8047 17.4316 79.7266 17.4277C79.6523 17.4238 79.5762 17.418 79.498 17.4102L79.3047 19.5488L79.2051 19.7305C79.1973 19.7461 79.1309 19.7773 79.0059 19.8242C78.8809 19.8711 78.7246 19.9258 78.5371 19.9883L78.168 20.1113C78.0508 20.1543 77.9473 20.1934 77.8574 20.2285C77.7676 20.2637 77.6836 20.2949 77.6055 20.3223C77.5273 20.3496 77.4512 20.3691 77.377 20.3809C77.3027 20.3965 77.2246 20.4043 77.1426 20.4043C77.0879 20.4043 77.0449 20.3906 77.0137 20.3633C76.9824 20.3359 76.9668 20.2832 76.9668 20.2051L77.0312 19.2031C77.043 19.0039 77.0566 18.8047 77.0723 18.6055C77.0918 18.4023 77.1094 18.1719 77.125 17.9141L77.2363 16.5137C77.2598 16.2285 77.2812 15.9434 77.3008 15.6582C77.3203 15.373 77.3398 15.1016 77.3594 14.8438C77.3789 14.5859 77.3965 14.3457 77.4121 14.123C77.4277 13.8965 77.4414 13.6992 77.4531 13.5312C77.2422 13.5781 77.0723 13.6133 76.9434 13.6367C76.8184 13.6562 76.7227 13.666 76.6562 13.666C76.5742 13.666 76.5332 13.6309 76.5332 13.5605C76.5879 13.3691 76.6387 13.1816 76.6855 12.998C76.7285 12.8418 76.7715 12.6816 76.8145 12.5176C76.8613 12.3496 76.9004 12.209 76.9316 12.0957C76.9512 12.0254 76.9727 11.9727 76.9961 11.9375C77.0234 11.8984 77.0566 11.8691 77.0957 11.8496C77.1387 11.8262 77.1914 11.8066 77.2539 11.791C77.3203 11.7715 77.4004 11.7461 77.4941 11.7148C77.5684 11.6914 77.6719 11.666 77.8047 11.6387C77.9414 11.6074 78.0957 11.5781 78.2676 11.5508C78.4434 11.5195 78.6328 11.4902 78.8359 11.4629C79.0391 11.4355 79.2441 11.4121 79.4512 11.3926C79.6621 11.3691 79.8691 11.3516 80.0723 11.3398C80.2754 11.3242 80.4668 11.3164 80.6465 11.3164C81.0918 11.3164 81.5137 11.3574 81.9121 11.4395C82.3105 11.5215 82.6602 11.6621 82.9609 11.8613C83.2617 12.0566 83.5 12.3223 83.6758 12.6582C83.8555 12.9902 83.9453 13.4082 83.9453 13.9121ZM79.6621 15.6699C79.6621 15.7129 79.6699 15.752 79.6855 15.7871C79.7012 15.8184 79.7441 15.834 79.8145 15.834C79.9238 15.834 80.0527 15.8105 80.2012 15.7637C80.3535 15.7129 80.5039 15.6387 80.6523 15.541C80.8047 15.4434 80.9453 15.3223 81.0742 15.1777C81.2031 15.0332 81.3008 14.8633 81.3672 14.668C81.3945 14.5898 81.416 14.4902 81.4316 14.3691C81.4512 14.248 81.4609 14.1055 81.4609 13.9414C81.4609 13.668 81.3652 13.4668 81.1738 13.3379C80.9863 13.209 80.7402 13.1445 80.4355 13.1445C80.3848 13.1445 80.3262 13.1484 80.2598 13.1562C80.1973 13.1602 80.1367 13.1699 80.0781 13.1855C80.0234 13.2012 79.9766 13.2207 79.9375 13.2441C79.8984 13.2637 79.877 13.291 79.873 13.3262L79.8613 13.4551C79.8574 13.5059 79.8496 13.5898 79.8379 13.707C79.8262 13.8203 79.8125 13.9512 79.7969 14.0996C79.7852 14.248 79.7715 14.4043 79.7559 14.5684C79.7441 14.7324 79.7305 14.8887 79.7148 15.0371C79.7031 15.1855 79.6914 15.3164 79.6797 15.4297C79.6719 15.543 79.666 15.623 79.6621 15.6699ZM83.5586 19.5723C83.6094 19.4707 83.6621 19.3574 83.7168 19.2324C83.7715 19.1035 83.8223 18.9648 83.8691 18.8164L84.0273 18.4297C83.957 18.3242 83.8848 18.2109 83.8105 18.0898C83.7402 17.9648 83.6758 17.8379 83.6172 17.709C83.5586 17.5801 83.5098 17.4512 83.4707 17.3223C83.4355 17.1934 83.418 17.0684 83.418 16.9473C83.418 16.9395 83.4473 16.9336 83.5059 16.9297C83.5684 16.9219 83.6445 16.916 83.7344 16.9121C83.8281 16.9082 83.9277 16.9062 84.0332 16.9062C84.1426 16.9023 84.2422 16.9004 84.332 16.9004C84.4258 16.8965 84.502 16.8945 84.5605 16.8945C84.623 16.8906 84.6543 16.8887 84.6543 16.8887C84.7441 16.6543 84.832 16.4316 84.918 16.2207C85.0039 16.0098 85.0898 15.7969 85.1758 15.582C85.2617 15.3672 85.3477 15.1484 85.4336 14.9258C85.5195 14.6992 85.6055 14.457 85.6914 14.1992C85.8555 13.7148 86.0156 13.2891 86.1719 12.9219C86.3281 12.5547 86.4746 12.2129 86.6113 11.8965C86.627 11.8574 86.6523 11.8223 86.6875 11.791C86.7266 11.7559 86.7676 11.7266 86.8105 11.7031C86.8535 11.6797 86.8945 11.6602 86.9336 11.6445C86.9766 11.6289 87.0098 11.6172 87.0332 11.6094C87.0488 11.6055 87.1074 11.5879 87.209 11.5566C87.3145 11.5254 87.4336 11.4922 87.5664 11.457C87.6992 11.4219 87.8301 11.3906 87.959 11.3633C88.0918 11.3359 88.1973 11.3223 88.2754 11.3223H88.3809C88.4434 11.3223 88.502 11.3379 88.5566 11.3691C88.6152 11.3965 88.6543 11.4531 88.6738 11.5391C88.8613 12.0195 89.0605 12.5449 89.2715 13.1152C89.4863 13.6816 89.6953 14.3066 89.8984 14.9902C90.0078 15.3574 90.1152 15.7051 90.2207 16.0332C90.3262 16.3613 90.4316 16.6816 90.5371 16.9941C90.6426 17.3066 90.748 17.6191 90.8535 17.9316C90.9629 18.2441 91.0742 18.5664 91.1875 18.8984C91.2227 19.0391 91.2578 19.1504 91.293 19.2324C91.332 19.3145 91.3672 19.3789 91.3984 19.4258C91.4297 19.4727 91.4551 19.5078 91.4746 19.5312C91.4941 19.5508 91.5039 19.5723 91.5039 19.5957C91.5039 19.6191 91.4668 19.6426 91.3926 19.666L90.1328 20.0762C90.0391 20.1113 89.9434 20.1465 89.8457 20.1816C89.748 20.2168 89.6562 20.248 89.5703 20.2754C89.4844 20.3027 89.4082 20.3242 89.3418 20.3398C89.2793 20.3594 89.2344 20.3691 89.207 20.3691H89.1719C89.1172 20.3691 89.0781 20.3516 89.0547 20.3164C89.0312 20.2852 89.0156 20.2539 89.0078 20.2227C88.9688 20.0938 88.9297 19.9785 88.8906 19.877C88.8516 19.7715 88.8125 19.668 88.7734 19.5664C88.7383 19.4609 88.7012 19.3496 88.6621 19.2324C88.627 19.1152 88.5918 18.9766 88.5566 18.8164C88.5488 18.7969 88.5273 18.7812 88.4922 18.7695C88.457 18.7539 88.4141 18.7422 88.3633 18.7344C88.3164 18.7266 88.2656 18.7227 88.2109 18.7227C88.1562 18.7188 88.1055 18.7168 88.0586 18.7168C87.9102 18.7168 87.7891 18.7188 87.6953 18.7227C87.6055 18.7227 87.5254 18.7246 87.4551 18.7285C87.3848 18.7285 87.3164 18.7305 87.25 18.7344C87.1875 18.7344 87.1094 18.7344 87.0156 18.7344C86.9023 18.7344 86.7852 18.7344 86.6641 18.7344C86.5469 18.7305 86.4395 18.7266 86.3418 18.7227L86.0078 18.7109C85.9062 18.9922 85.8047 19.2559 85.7031 19.502C85.6016 19.748 85.4922 20.002 85.375 20.2637C85.3672 20.2949 85.3477 20.3203 85.3164 20.3398C85.2891 20.3594 85.2598 20.3691 85.2285 20.3691C85.2051 20.3691 85.1914 20.3672 85.1875 20.3633C84.8086 20.2266 84.4902 20.0918 84.2324 19.959C83.9746 19.8262 83.75 19.6973 83.5586 19.5723ZM87.5078 14.3047C87.4141 14.6523 87.3203 14.9688 87.2266 15.2539C87.1367 15.5352 87.0527 15.7852 86.9746 16.0039C86.9004 16.2227 86.8359 16.4082 86.7812 16.5605C86.7266 16.709 86.6875 16.8242 86.6641 16.9062V16.959C86.6641 16.9824 86.6621 16.998 86.6582 17.0059H88.0645C88.0215 16.8145 87.9746 16.6211 87.9238 16.4258C87.877 16.2305 87.8301 16.0254 87.7832 15.8105C87.7363 15.5957 87.6895 15.3652 87.6426 15.1191C87.5957 14.873 87.5508 14.6016 87.5078 14.3047ZM91.4219 12.1953C91.4453 12.1797 91.4844 12.1602 91.5391 12.1367C91.5977 12.1094 91.6641 12.0801 91.7383 12.0488C91.8164 12.0176 91.8984 11.9844 91.9844 11.9492C92.0742 11.9102 92.1641 11.873 92.2539 11.8379L92.9336 11.5684C92.9844 11.5449 93.0312 11.5332 93.0742 11.5332C93.1055 11.5332 93.1387 11.543 93.1738 11.5625C93.2129 11.5781 93.2559 11.6094 93.3027 11.6562L94.6562 14.2812L94.6914 14.1934L95.2715 13.1211C95.3457 12.9883 95.418 12.8574 95.4883 12.7285C95.5625 12.5996 95.627 12.4844 95.6816 12.3828C95.7402 12.2812 95.7891 12.1992 95.8281 12.1367C95.8672 12.0742 95.8906 12.043 95.8984 12.043L97.9082 11.5391C97.9551 11.5273 97.9941 11.5215 98.0254 11.5215C98.1152 11.5215 98.1602 11.5625 98.1602 11.6445C98.1562 11.6641 98.1523 11.6914 98.1484 11.7266C98.1445 11.7578 98.1328 11.793 98.1133 11.832L96.3906 15.0254C96.3047 15.1855 96.2168 15.3457 96.127 15.5059C96.041 15.666 95.957 15.8184 95.875 15.9629C95.793 16.1035 95.7188 16.2324 95.6523 16.3496C95.5898 16.4668 95.5391 16.5625 95.5 16.6367L95.459 16.8301L95.1309 19.0273C95.1191 19.0938 95.1094 19.1484 95.1016 19.1914C95.0938 19.2344 95.082 19.2695 95.0664 19.2969C95.0547 19.3242 95.0371 19.3477 95.0137 19.3672C94.9941 19.3867 94.9648 19.4062 94.9258 19.4258L93.2617 20.2988C93.1992 20.3301 93.1328 20.3555 93.0625 20.375C92.9961 20.3945 92.9316 20.4043 92.8691 20.4043C92.8027 20.4043 92.7461 20.3887 92.6992 20.3574C92.6523 20.3301 92.6289 20.2832 92.6289 20.2168V20.1934C92.6445 19.9707 92.6719 19.7129 92.7109 19.4199C92.7539 19.123 92.7988 18.834 92.8457 18.5527L93.1738 16.3789C93.1113 16.2461 93.0293 16.0703 92.9277 15.8516C92.8262 15.6328 92.7168 15.3965 92.5996 15.1426C92.4824 14.8887 92.3594 14.627 92.2305 14.3574C92.1055 14.0879 91.9863 13.834 91.873 13.5957C91.7637 13.3535 91.6641 13.1406 91.5742 12.957C91.4883 12.7734 91.4238 12.6387 91.3809 12.5527C91.3613 12.4941 91.3516 12.4336 91.3516 12.3711C91.3516 12.3359 91.3555 12.3027 91.3633 12.2715C91.375 12.2363 91.3945 12.2109 91.4219 12.1953Z" fill="#E00120"/>
</svg>
