<svg width="204" height="59" viewBox="0 0 204 59" fill="none" xmlns="http://www.w3.org/2000/svg">
<path d="M35 17.0703C34.974 17.4219 34.9284 17.9427 34.8633 18.6328C34.7982 19.3099 34.7201 20.0846 34.6289 20.957C34.5508 21.8164 34.4661 22.7214 34.375 23.6719C34.2839 24.6224 34.1927 25.5339 34.1016 26.4062C34.0234 27.2656 33.9518 28.0469 33.8867 28.75C33.8216 29.4531 33.776 29.9805 33.75 30.332C33.4766 33.1055 33.0078 35.4883 32.3438 37.4805C31.6927 39.4596 30.8333 41.0807 29.7656 42.3438C28.6979 43.6068 27.4154 44.5312 25.918 45.1172C24.4336 45.7161 22.7148 46.0156 20.7617 46.0156C19.4206 46.0156 18.1576 45.7682 16.9727 45.2734C15.7878 44.7917 14.7526 44.1081 13.8672 43.2227C12.9818 42.3372 12.2786 41.276 11.7578 40.0391C11.25 38.7891 10.9961 37.4023 10.9961 35.8789C10.9961 35.6836 11.0091 35.332 11.0352 34.8242C11.0742 34.3034 11.1198 33.6719 11.1719 32.9297C11.237 32.1875 11.3021 31.3477 11.3672 30.4102C11.4453 29.4596 11.5234 28.4505 11.6016 27.3828L11.8359 24.1406C11.9141 22.9557 11.9727 21.9727 12.0117 21.1914C12.0508 20.3971 12.0898 19.7591 12.1289 19.2773C12.181 18.7956 12.2526 18.444 12.3438 18.2227C12.4349 18.0013 12.5781 17.8581 12.7734 17.793L19.4336 16.3086C19.6029 16.2565 19.7786 16.2305 19.9609 16.2305C20.1693 16.2305 20.306 16.2891 20.3711 16.4062C20.4492 16.5234 20.4883 16.7448 20.4883 17.0703L19.0039 32.4609C18.9779 32.9167 18.9323 33.4115 18.8672 33.9453C18.8021 34.4792 18.7695 35.026 18.7695 35.5859C18.7695 35.9245 18.8086 36.2956 18.8867 36.6992C18.9779 37.1029 19.1341 37.487 19.3555 37.8516C19.5768 38.2031 19.8763 38.5026 20.2539 38.75C20.6445 38.9844 21.1458 39.1016 21.7578 39.1016C22.5 39.1016 23.099 38.9453 23.5547 38.6328C24.0104 38.3073 24.375 37.8841 24.6484 37.3633C24.9219 36.8294 25.1172 36.2305 25.2344 35.5664C25.3646 34.8893 25.4688 34.1992 25.5469 33.4961C25.612 32.6758 25.6901 31.7122 25.7812 30.6055C25.8724 29.4987 25.9635 28.3138 26.0547 27.0508L26.6211 19.2578C26.6471 19.0234 26.6602 18.8281 26.6602 18.6719C26.6732 18.5156 26.6927 18.3854 26.7188 18.2812C26.7448 18.1771 26.7969 18.099 26.875 18.0469C26.9661 17.9948 27.1029 17.9557 27.2852 17.9297L33.9453 16.3086C34.1146 16.2565 34.2904 16.2305 34.4727 16.2305C34.6549 16.2305 34.7852 16.2891 34.8633 16.4062C34.9544 16.5104 35 16.7318 35 17.0703ZM54.2969 18.8281C54.401 18.3984 54.4922 18.0859 54.5703 17.8906C54.6484 17.6953 54.8177 17.5651 55.0781 17.5L60.1367 16.3086C60.293 16.2565 60.4622 16.2305 60.6445 16.2305C60.8138 16.2305 60.9375 16.2891 61.0156 16.4062C61.0938 16.5234 61.1328 16.7448 61.1328 17.0703C61.0547 17.3828 60.9896 17.8646 60.9375 18.5156C60.8854 19.1536 60.8464 19.8568 60.8203 20.625C60.7943 21.3932 60.7747 22.168 60.7617 22.9492C60.7487 23.7174 60.7422 24.388 60.7422 24.9609V26.0352C60.7422 26.8424 60.7357 27.7214 60.7227 28.6719C60.7096 29.6224 60.6901 30.5859 60.6641 31.5625C60.651 32.5391 60.6315 33.5026 60.6055 34.4531C60.5794 35.4036 60.5534 36.2956 60.5273 37.1289L60.4102 40.4688C60.3971 40.5339 60.3906 40.5924 60.3906 40.6445C60.3906 40.6966 60.3906 40.7487 60.3906 40.8008V41.0938C60.3906 41.3151 60.3906 41.5039 60.3906 41.6602C60.4036 41.8034 60.4102 41.9336 60.4102 42.0508C60.4102 42.181 60.3971 42.2982 60.3711 42.4023C60.3581 42.5065 60.3125 42.6107 60.2344 42.7148C60.1562 42.806 60.0456 42.9036 59.9023 43.0078C59.7721 43.112 59.5898 43.2422 59.3555 43.3984C59.2253 43.4896 59.0104 43.6263 58.7109 43.8086C58.4115 43.9779 58.0794 44.1732 57.7148 44.3945C57.3503 44.6159 56.9727 44.8438 56.582 45.0781C56.1914 45.3125 55.8333 45.5208 55.5078 45.7031C55.1823 45.8984 54.9154 46.0547 54.707 46.1719C54.5117 46.2891 54.4141 46.3477 54.4141 46.3477L45.3516 32.4023L44.5312 43.8281C44.5182 43.9323 44.4922 44.043 44.4531 44.1602C44.4271 44.2773 44.3424 44.3685 44.1992 44.4336C44.082 44.4857 43.8802 44.5703 43.5938 44.6875C43.3073 44.7917 42.9688 44.9154 42.5781 45.0586C42.2005 45.2018 41.7969 45.3451 41.3672 45.4883C40.9505 45.6445 40.5534 45.7812 40.1758 45.8984C39.7982 46.0286 39.4596 46.1328 39.1602 46.2109C38.8737 46.2891 38.6784 46.3281 38.5742 46.3281C38.3789 46.3281 38.2161 46.276 38.0859 46.1719C37.9557 46.0677 37.8906 45.8789 37.8906 45.6055C38.0208 43.9779 38.1706 42.207 38.3398 40.293C38.5091 38.3659 38.6719 36.3932 38.8281 34.375C38.9844 32.3568 39.1276 30.3451 39.2578 28.3398C39.401 26.3216 39.5182 24.4076 39.6094 22.5977C39.6094 22.5456 39.5247 22.3763 39.3555 22.0898C39.1992 21.7904 39.0169 21.4714 38.8086 21.1328C38.6133 20.7812 38.431 20.4557 38.2617 20.1562C38.1055 19.8438 38.0273 19.6484 38.0273 19.5703C38.0273 19.4792 38.0729 19.3945 38.1641 19.3164C38.2682 19.2383 38.431 19.1341 38.6523 19.0039L43.8672 16.0547C43.9062 16.0547 43.9583 16.0482 44.0234 16.0352C44.1016 16.0221 44.1667 16.0156 44.2188 16.0156C44.362 16.0156 44.4727 16.0352 44.5508 16.0742C44.6419 16.1003 44.7331 16.1979 44.8242 16.3672L54.2969 33.457V18.8281ZM68.8867 45.625C68.9518 44.6745 69.0169 43.7565 69.082 42.8711C69.1471 41.9857 69.2057 41.1263 69.2578 40.293L69.9609 31.0742C70.0391 30.3711 70.1042 29.7331 70.1562 29.1602C70.2083 28.5742 70.2474 28.0078 70.2734 27.4609C70.3125 26.901 70.3451 26.3411 70.3711 25.7812C70.4102 25.2083 70.4492 24.5768 70.4883 23.8867C70.0586 23.8737 69.6029 23.8672 69.1211 23.8672C68.6523 23.8672 68.1576 23.8672 67.6367 23.8672H63.8672C63.724 23.8672 63.6328 23.8151 63.5938 23.7109C63.5677 23.5938 63.5547 23.4896 63.5547 23.3984V23.2617L65.7031 17.6172L65.6836 17.5391C65.6836 17.474 65.7227 17.4219 65.8008 17.3828C65.8919 17.3307 66.0872 17.2917 66.3867 17.2656C68.1836 17.1615 69.9219 17.0638 71.6016 16.9727C73.2943 16.8685 74.9609 16.7773 76.6016 16.6992C78.2552 16.6211 79.9023 16.543 81.543 16.4648C83.1966 16.3867 84.8958 16.3151 86.6406 16.25C86.7969 16.25 86.9596 16.2695 87.1289 16.3086C87.3112 16.3477 87.4023 16.4909 87.4023 16.7383C87.4023 16.7643 87.3958 16.7904 87.3828 16.8164C87.3698 16.8424 87.3633 16.8685 87.3633 16.8945C87.1549 17.4284 86.9596 17.9362 86.7773 18.418C86.6081 18.8997 86.4388 19.375 86.2695 19.8438C86.1003 20.3125 85.9245 20.7878 85.7422 21.2695C85.5729 21.7513 85.3841 22.2591 85.1758 22.793C85.1628 22.806 85.1367 22.8711 85.0977 22.9883C85.0586 23.0924 85 23.2161 84.9219 23.3594C84.8438 23.4896 84.7396 23.6133 84.6094 23.7305C84.4792 23.8477 84.3164 23.9128 84.1211 23.9258C84.056 23.9128 83.9909 23.9062 83.9258 23.9062C83.8607 23.9062 83.7891 23.9062 83.7109 23.9062H78.4961C78.431 24.5703 78.3659 25.2734 78.3008 26.0156C78.2487 26.7578 78.1836 27.4805 78.1055 28.1836L76.6797 43.4375C76.6667 43.5547 76.6406 43.6719 76.6016 43.7891C76.5755 43.9062 76.4909 43.9909 76.3477 44.043L70.8203 46.0352C70.6771 46.0872 70.4883 46.1523 70.2539 46.2305C70.0195 46.3086 69.7917 46.3477 69.5703 46.3477C69.388 46.3477 69.2253 46.3021 69.082 46.2109C68.9518 46.1198 68.8867 45.9505 68.8867 45.7031V45.625ZM83.3984 43.5742C83.5677 43.2357 83.7435 42.8581 83.9258 42.4414C84.1081 42.0117 84.2773 41.5495 84.4336 41.0547L84.9609 39.7656C84.7266 39.4141 84.4857 39.0365 84.2383 38.6328C84.0039 38.2161 83.7891 37.793 83.5938 37.3633C83.3984 36.9336 83.2357 36.5039 83.1055 36.0742C82.9883 35.6445 82.9297 35.2279 82.9297 34.8242C82.9297 34.7982 83.0273 34.7786 83.2227 34.7656C83.431 34.7396 83.6849 34.7201 83.9844 34.707C84.2969 34.694 84.6289 34.6875 84.9805 34.6875C85.3451 34.6745 85.6771 34.668 85.9766 34.668C86.2891 34.6549 86.543 34.6484 86.7383 34.6484C86.9466 34.6354 87.0508 34.6289 87.0508 34.6289C87.3503 33.8477 87.6432 33.1055 87.9297 32.4023C88.2161 31.6992 88.5026 30.9896 88.7891 30.2734C89.0755 29.5573 89.362 28.8281 89.6484 28.0859C89.9349 27.3307 90.2214 26.5234 90.5078 25.6641C91.0547 24.0495 91.5885 22.6302 92.1094 21.4062C92.6302 20.1823 93.1185 19.043 93.5742 17.9883C93.6263 17.8581 93.7109 17.7409 93.8281 17.6367C93.9583 17.5195 94.0951 17.4219 94.2383 17.3438C94.3815 17.2656 94.5182 17.2005 94.6484 17.1484C94.7917 17.0964 94.9023 17.0573 94.9805 17.0312C95.0326 17.0182 95.2279 16.9596 95.5664 16.8555C95.918 16.7513 96.3151 16.6406 96.7578 16.5234C97.2005 16.4062 97.6367 16.3021 98.0664 16.2109C98.5091 16.1198 98.8607 16.0742 99.1211 16.0742H99.4727C99.681 16.0742 99.8763 16.1263 100.059 16.2305C100.254 16.3216 100.384 16.5104 100.449 16.7969C101.074 18.3984 101.738 20.1497 102.441 22.0508C103.158 23.9388 103.854 26.0221 104.531 28.3008C104.896 29.5247 105.254 30.6836 105.605 31.7773C105.957 32.8711 106.309 33.9388 106.66 34.9805C107.012 36.0221 107.363 37.0638 107.715 38.1055C108.079 39.1471 108.451 40.2214 108.828 41.3281C108.945 41.7969 109.062 42.168 109.18 42.4414C109.31 42.7148 109.427 42.9297 109.531 43.0859C109.635 43.2422 109.72 43.3594 109.785 43.4375C109.85 43.5026 109.883 43.5742 109.883 43.6523C109.883 43.7305 109.759 43.8086 109.512 43.8867L105.312 45.2539C105 45.3711 104.681 45.4883 104.355 45.6055C104.03 45.7227 103.724 45.8268 103.438 45.918C103.151 46.0091 102.897 46.0807 102.676 46.1328C102.467 46.1979 102.318 46.2305 102.227 46.2305H102.109C101.927 46.2305 101.797 46.1719 101.719 46.0547C101.641 45.9505 101.589 45.8464 101.562 45.7422C101.432 45.3125 101.302 44.9284 101.172 44.5898C101.042 44.2383 100.911 43.8932 100.781 43.5547C100.664 43.2031 100.54 42.832 100.41 42.4414C100.293 42.0508 100.176 41.5885 100.059 41.0547C100.033 40.9896 99.9609 40.9375 99.8438 40.8984C99.7266 40.8464 99.5833 40.8073 99.4141 40.7812C99.2578 40.7552 99.0885 40.7422 98.9062 40.7422C98.724 40.7292 98.5547 40.7227 98.3984 40.7227C97.9036 40.7227 97.5 40.7292 97.1875 40.7422C96.888 40.7422 96.6211 40.7487 96.3867 40.7617C96.1523 40.7617 95.9245 40.7682 95.7031 40.7812C95.4948 40.7812 95.2344 40.7812 94.9219 40.7812C94.5443 40.7812 94.1536 40.7812 93.75 40.7812C93.3594 40.7682 93.0013 40.7552 92.6758 40.7422L91.5625 40.7031C91.224 41.6406 90.8854 42.5195 90.5469 43.3398C90.2083 44.1602 89.8438 45.0065 89.4531 45.8789C89.4271 45.9831 89.362 46.0677 89.2578 46.1328C89.1667 46.1979 89.069 46.2305 88.9648 46.2305C88.8867 46.2305 88.8411 46.224 88.8281 46.2109C87.5651 45.7552 86.5039 45.306 85.6445 44.8633C84.7852 44.4206 84.0365 43.9909 83.3984 43.5742ZM96.5625 26.0156C96.25 27.1745 95.9375 28.2292 95.625 29.1797C95.3255 30.1172 95.0456 30.9505 94.7852 31.6797C94.5378 32.4089 94.3229 33.0273 94.1406 33.5352C93.9583 34.0299 93.8281 34.4141 93.75 34.6875V34.8633C93.75 34.9414 93.7435 34.9935 93.7305 35.0195H98.418C98.2747 34.3815 98.1185 33.737 97.9492 33.0859C97.793 32.4349 97.6367 31.7513 97.4805 31.0352C97.3242 30.319 97.168 29.5508 97.0117 28.7305C96.8555 27.9102 96.7057 27.0052 96.5625 26.0156ZM110.82 32.3828C110.82 30.8854 110.99 29.4531 111.328 28.0859C111.68 26.7057 112.174 25.4232 112.812 24.2383C113.451 23.0404 114.219 21.9596 115.117 20.9961C116.029 20.0195 117.044 19.1862 118.164 18.4961C119.284 17.793 120.495 17.2526 121.797 16.875C123.112 16.4974 124.492 16.3086 125.938 16.3086C127.083 16.3086 128.086 16.3867 128.945 16.543C129.818 16.6862 130.573 16.875 131.211 17.1094C131.862 17.3307 132.402 17.5781 132.832 17.8516C133.275 18.125 133.639 18.3854 133.926 18.6328C133.913 18.6328 133.906 18.6784 133.906 18.7695C133.906 18.9648 133.919 19.3229 133.945 19.8438C133.984 20.3646 134.023 20.944 134.062 21.582C134.115 22.2201 134.154 22.8711 134.18 23.5352C134.219 24.1862 134.238 24.7526 134.238 25.2344C134.238 25.3125 134.212 25.4036 134.16 25.5078C134.108 25.599 133.978 25.6445 133.77 25.6445C133.652 25.6445 133.509 25.625 133.34 25.5859C133.066 25.5078 132.721 25.332 132.305 25.0586C131.888 24.7721 131.4 24.4792 130.84 24.1797C130.293 23.8672 129.674 23.5938 128.984 23.3594C128.307 23.112 127.565 22.9883 126.758 22.9883C125.69 22.9883 124.72 23.2161 123.848 23.6719C122.975 24.1146 122.233 24.7396 121.621 25.5469C121.009 26.3411 120.534 27.2917 120.195 28.3984C119.857 29.4922 119.688 30.6836 119.688 31.9727C119.688 33.1055 119.792 34.1667 120 35.1562C120.208 36.1458 120.521 37.0052 120.938 37.7344C121.367 38.4505 121.895 39.0169 122.52 39.4336C123.145 39.8503 123.88 40.0586 124.727 40.0586C125.547 40.0586 126.478 39.8828 127.52 39.5312L127.969 36.7773H124.238C124.525 35.2018 124.772 33.9648 124.98 33.0664C125.189 32.168 125.384 31.4909 125.566 31.0352C125.749 30.5794 125.938 30.293 126.133 30.1758C126.328 30.0586 126.556 30 126.816 30H137.09C137.389 30 137.604 30.0195 137.734 30.0586C137.878 30.0977 137.949 30.2344 137.949 30.4688C137.949 30.5859 137.936 30.7292 137.91 30.8984C137.884 31.0547 137.852 31.25 137.812 31.4844L136.836 34.7656C136.719 35.1823 136.621 35.5078 136.543 35.7422C136.465 35.9635 136.367 36.1328 136.25 36.25C136.133 36.3542 135.97 36.4193 135.762 36.4453C135.566 36.4583 135.28 36.4648 134.902 36.4648C134.694 36.4648 134.57 36.5495 134.531 36.7188C134.492 36.888 134.46 37.0638 134.434 37.2461C134.355 37.819 134.277 38.3919 134.199 38.9648C134.121 39.5247 134.043 40.0521 133.965 40.5469C133.9 41.0286 133.828 41.4583 133.75 41.8359C133.672 42.2005 133.594 42.4674 133.516 42.6367C132.63 43.1966 131.823 43.6914 131.094 44.1211C130.378 44.5378 129.661 44.8828 128.945 45.1562C128.229 45.4427 127.474 45.6576 126.68 45.8008C125.885 45.944 124.974 46.0156 123.945 46.0156C122.109 46.0156 120.391 45.6836 118.789 45.0195C117.188 44.3555 115.794 43.4245 114.609 42.2266C113.438 41.0156 112.513 39.5768 111.836 37.9102C111.159 36.2435 110.82 34.401 110.82 32.3828Z" fill="#E00120"/>
<rect x="145" width="59" height="59" rx="29.5" fill="#E00120"/>
<path d="M169.788 25.4689C169.782 26.0288 169.726 26.5301 169.622 26.9728C169.525 27.4155 169.381 27.8159 169.193 28.174C169.01 28.5255 168.786 28.8445 168.519 29.131C168.258 29.4109 167.959 29.6746 167.62 29.922C166.969 30.3907 166.256 30.7456 165.482 30.9865C164.707 31.2208 163.929 31.338 163.148 31.338C163.018 31.338 162.887 31.3348 162.757 31.3282C162.633 31.3217 162.506 31.312 162.376 31.299L162.054 34.8634L161.888 35.1661C161.875 35.1922 161.764 35.2443 161.556 35.3224C161.348 35.4005 161.087 35.4917 160.775 35.5958L160.159 35.8009C159.964 35.8725 159.792 35.9376 159.642 35.9962C159.492 36.0548 159.352 36.1069 159.222 36.1525C159.092 36.198 158.965 36.2306 158.841 36.2501C158.717 36.2762 158.587 36.2892 158.45 36.2892C158.359 36.2892 158.288 36.2664 158.236 36.2208C158.184 36.1753 158.157 36.0874 158.157 35.9572L158.265 34.2872C158.284 33.9552 158.307 33.6232 158.333 33.2911C158.366 32.9526 158.395 32.5685 158.421 32.1388L158.607 29.8048C158.646 29.3295 158.682 28.8543 158.714 28.379C158.747 27.9038 158.779 27.4513 158.812 27.0216C158.844 26.5919 158.874 26.1915 158.9 25.8204C158.926 25.4428 158.948 25.1141 158.968 24.8341C158.616 24.9122 158.333 24.9708 158.118 25.0099C157.91 25.0424 157.751 25.0587 157.64 25.0587C157.503 25.0587 157.435 25.0001 157.435 24.8829C157.526 24.5639 157.611 24.2514 157.689 23.9454C157.76 23.685 157.832 23.4181 157.904 23.1447C157.982 22.8647 158.047 22.6303 158.099 22.4415C158.131 22.3243 158.167 22.2365 158.206 22.1779C158.252 22.1128 158.307 22.0639 158.372 22.0314C158.444 21.9923 158.532 21.9598 158.636 21.9337C158.747 21.9012 158.88 21.8588 159.036 21.8068C159.16 21.7677 159.333 21.7254 159.554 21.6798C159.782 21.6277 160.039 21.5789 160.325 21.5333C160.618 21.4812 160.934 21.4324 161.273 21.3868C161.611 21.3413 161.953 21.3022 162.298 21.2697C162.65 21.2306 162.995 21.2013 163.333 21.1818C163.672 21.1557 163.991 21.1427 164.29 21.1427C165.032 21.1427 165.736 21.2111 166.4 21.3478C167.064 21.4845 167.646 21.7189 168.148 22.0509C168.649 22.3764 169.046 22.8191 169.339 23.379C169.639 23.9324 169.788 24.629 169.788 25.4689ZM162.65 28.3986C162.65 28.4702 162.663 28.5353 162.689 28.5939C162.715 28.646 162.786 28.672 162.904 28.672C163.086 28.672 163.301 28.6329 163.548 28.5548C163.802 28.4702 164.053 28.3465 164.3 28.1837C164.554 28.021 164.788 27.8191 165.003 27.5782C165.218 27.3374 165.381 27.0542 165.491 26.7286C165.537 26.5984 165.573 26.4324 165.599 26.2306C165.631 26.0288 165.648 25.7911 165.648 25.5177C165.648 25.062 165.488 24.7267 165.169 24.5118C164.857 24.297 164.447 24.1896 163.939 24.1896C163.854 24.1896 163.756 24.1961 163.646 24.2091C163.542 24.2156 163.441 24.2319 163.343 24.2579C163.252 24.284 163.174 24.3165 163.109 24.3556C163.044 24.3881 163.008 24.4337 163.001 24.4923L162.982 24.7072C162.975 24.7918 162.962 24.9318 162.943 25.1271C162.923 25.3159 162.9 25.534 162.874 25.7814C162.855 26.0288 162.832 26.2892 162.806 26.5626C162.786 26.8361 162.764 27.0965 162.738 27.3439C162.718 27.5913 162.698 27.8094 162.679 27.9982C162.666 28.187 162.656 28.3204 162.65 28.3986ZM169.144 34.9025C169.228 34.7332 169.316 34.5444 169.407 34.3361C169.499 34.1212 169.583 33.8901 169.661 33.6427L169.925 32.9982C169.808 32.8224 169.687 32.6336 169.564 32.4318C169.447 32.2234 169.339 32.0118 169.241 31.797C169.144 31.5822 169.062 31.3673 168.997 31.1525C168.939 30.9376 168.909 30.7293 168.909 30.5275C168.909 30.5144 168.958 30.5047 169.056 30.4982C169.16 30.4851 169.287 30.4754 169.437 30.4689C169.593 30.4624 169.759 30.4591 169.935 30.4591C170.117 30.4526 170.283 30.4493 170.433 30.4493C170.589 30.4428 170.716 30.4396 170.814 30.4396C170.918 30.4331 170.97 30.4298 170.97 30.4298C171.12 30.0392 171.266 29.6681 171.409 29.3165C171.553 28.965 171.696 28.6101 171.839 28.2521C171.982 27.894 172.126 27.5294 172.269 27.1583C172.412 26.7807 172.555 26.3771 172.698 25.9474C172.972 25.1401 173.239 24.4305 173.499 23.8185C173.76 23.2065 174.004 22.6368 174.232 22.1095C174.258 22.0444 174.3 21.9858 174.359 21.9337C174.424 21.8751 174.492 21.8263 174.564 21.7872C174.635 21.7482 174.704 21.7156 174.769 21.6896C174.84 21.6635 174.896 21.644 174.935 21.631C174.961 21.6245 175.059 21.5952 175.228 21.5431C175.404 21.491 175.602 21.4357 175.823 21.3771C176.045 21.3185 176.263 21.2664 176.478 21.2208C176.699 21.1753 176.875 21.1525 177.005 21.1525H177.181C177.285 21.1525 177.383 21.1785 177.474 21.2306C177.572 21.2762 177.637 21.3706 177.669 21.5138C177.982 22.3146 178.314 23.1902 178.665 24.1407C179.023 25.0848 179.372 26.1264 179.71 27.2657C179.893 27.8777 180.072 28.4572 180.247 29.004C180.423 29.5509 180.599 30.0848 180.775 30.6056C180.95 31.1264 181.126 31.6473 181.302 32.1681C181.484 32.6889 181.67 33.226 181.859 33.7794C181.917 34.0138 181.976 34.1993 182.034 34.3361C182.1 34.4728 182.158 34.5802 182.21 34.6583C182.262 34.7365 182.305 34.795 182.337 34.8341C182.37 34.8667 182.386 34.9025 182.386 34.9415C182.386 34.9806 182.324 35.0197 182.2 35.0587L180.101 35.7423C179.945 35.8009 179.785 35.8595 179.622 35.9181C179.46 35.9767 179.307 36.0288 179.163 36.0743C179.02 36.1199 178.893 36.1557 178.782 36.1818C178.678 36.2143 178.603 36.2306 178.558 36.2306H178.499C178.408 36.2306 178.343 36.2013 178.304 36.1427C178.265 36.0906 178.239 36.0385 178.226 35.9865C178.161 35.7716 178.096 35.5795 178.031 35.4103C177.965 35.2345 177.9 35.062 177.835 34.8927C177.777 34.7169 177.715 34.5314 177.65 34.3361C177.591 34.1407 177.532 33.9096 177.474 33.6427C177.461 33.6101 177.425 33.5841 177.366 33.5646C177.308 33.5385 177.236 33.519 177.152 33.506C177.073 33.493 176.989 33.4865 176.898 33.4865C176.807 33.4799 176.722 33.4767 176.644 33.4767C176.396 33.4767 176.195 33.4799 176.038 33.4865C175.889 33.4865 175.755 33.4897 175.638 33.4962C175.521 33.4962 175.407 33.4995 175.296 33.506C175.192 33.506 175.062 33.506 174.906 33.506C174.717 33.506 174.521 33.506 174.32 33.506C174.124 33.4995 173.945 33.493 173.782 33.4865L173.226 33.4669C173.057 33.9357 172.887 34.3751 172.718 34.7853C172.549 35.1954 172.366 35.6186 172.171 36.0548C172.158 36.1069 172.126 36.1492 172.073 36.1818C172.028 36.2143 171.979 36.2306 171.927 36.2306C171.888 36.2306 171.865 36.2273 171.859 36.2208C171.227 35.993 170.697 35.7684 170.267 35.547C169.837 35.3256 169.463 35.1108 169.144 34.9025ZM175.726 26.1232C175.57 26.7026 175.413 27.2299 175.257 27.7052C175.107 28.174 174.967 28.5906 174.837 28.9552C174.713 29.3198 174.606 29.629 174.515 29.8829C174.424 30.1303 174.359 30.3224 174.32 30.4591V30.547C174.32 30.5861 174.316 30.6121 174.31 30.6251H176.654C176.582 30.3061 176.504 29.9838 176.419 29.6583C176.341 29.3328 176.263 28.991 176.185 28.6329C176.107 28.2749 176.029 27.8907 175.95 27.4806C175.872 27.0704 175.797 26.618 175.726 26.1232ZM182.249 22.6075C182.288 22.5815 182.353 22.549 182.445 22.5099C182.542 22.4643 182.653 22.4155 182.777 22.3634C182.907 22.3113 183.044 22.256 183.187 22.1974C183.337 22.1323 183.486 22.0704 183.636 22.0118L184.769 21.5626C184.853 21.5236 184.932 21.504 185.003 21.504C185.055 21.504 185.111 21.5203 185.169 21.5529C185.234 21.5789 185.306 21.631 185.384 21.7091L187.64 26.0841L187.698 25.9376L188.665 24.1505C188.789 23.9292 188.909 23.7111 189.027 23.4962C189.15 23.2814 189.258 23.0893 189.349 22.92C189.447 22.7508 189.528 22.6141 189.593 22.5099C189.658 22.4057 189.697 22.3536 189.71 22.3536L193.06 21.5138C193.138 21.4943 193.203 21.4845 193.255 21.4845C193.405 21.4845 193.48 21.5529 193.48 21.6896C193.473 21.7221 193.467 21.7677 193.46 21.8263C193.454 21.8784 193.434 21.937 193.402 22.0021L190.531 27.3243C190.387 27.5913 190.241 27.8582 190.091 28.1251C189.948 28.392 189.808 28.646 189.671 28.8868C189.534 29.1212 189.411 29.3361 189.3 29.5314C189.196 29.7267 189.111 29.8862 189.046 30.0099L188.978 30.3322L188.431 33.9943C188.411 34.1049 188.395 34.1961 188.382 34.2677C188.369 34.3393 188.35 34.3979 188.323 34.4435C188.304 34.4891 188.275 34.5281 188.236 34.5607C188.203 34.5932 188.154 34.6258 188.089 34.6583L185.316 36.1134C185.212 36.1655 185.101 36.2078 184.984 36.2404C184.873 36.2729 184.766 36.2892 184.661 36.2892C184.551 36.2892 184.456 36.2631 184.378 36.2111C184.3 36.1655 184.261 36.0874 184.261 35.9767V35.9376C184.287 35.5665 184.333 35.1368 184.398 34.6486C184.469 34.1538 184.544 33.672 184.622 33.2032L185.169 29.5802C185.065 29.3588 184.928 29.0659 184.759 28.7013C184.59 28.3367 184.407 27.9428 184.212 27.5197C184.017 27.0965 183.812 26.6603 183.597 26.2111C183.389 25.7618 183.19 25.3387 183.001 24.9415C182.819 24.5379 182.653 24.1831 182.503 23.8771C182.36 23.5711 182.253 23.3465 182.181 23.2032C182.148 23.1056 182.132 23.0047 182.132 22.9005C182.132 22.8419 182.139 22.7866 182.152 22.7345C182.171 22.6759 182.204 22.6336 182.249 22.6075Z" fill="white"/>
</svg>
